<?xml version="1.0" encoding="utf-8" standalone="no"?>
<!DOCTYPE svg PUBLIC "-//W3C//DTD SVG 1.1//EN"
  "http://www.w3.org/Graphics/SVG/1.1/DTD/svg11.dtd">
<svg xmlns:xlink="http://www.w3.org/1999/xlink" width="460.8pt" height="345.6pt" viewBox="0 0 460.8 345.6" xmlns="http://www.w3.org/2000/svg" version="1.1">
 <metadata>
  <rdf:RDF xmlns:dc="http://purl.org/dc/elements/1.1/" xmlns:cc="http://creativecommons.org/ns#" xmlns:rdf="http://www.w3.org/1999/02/22-rdf-syntax-ns#">
   <cc:Work>
    <dc:type rdf:resource="http://purl.org/dc/dcmitype/StillImage"/>
    <dc:date>2025-12-10T22:34:07.774147</dc:date>
    <dc:format>image/svg+xml</dc:format>
    <dc:creator>
     <cc:Agent>
      <dc:title>Matplotlib v3.10.6, https://matplotlib.org/</dc:title>
     </cc:Agent>
    </dc:creator>
   </cc:Work>
  </rdf:RDF>
 </metadata>
 <defs>
  <style type="text/css">*{stroke-linejoin: round; stroke-linecap: butt}</style>
 </defs>
 <g id="figure_1">
  <g id="patch_1">
   <path d="M 0 345.6 
L 460.8 345.6 
L 460.8 0 
L 0 0 
z
" style="fill: #ffffff"/>
  </g>
  <g id="axes_1">
   <g id="patch_2">
    <path d="M 57.6 307.584 
L 414.72 307.584 
L 414.72 41.472 
L 57.6 41.472 
z
" style="fill: #ffffff"/>
   </g>
   <g id="QuadContourSet_1">
    <path d="M 349.789091 305.511441 
L 352.351735 307.584 
L 353.396364 307.584 
L 357.003636 307.584 
L 360.610909 307.584 
L 364.218182 307.584 
L 367.825455 307.584 
L 371.432727 307.584 
L 375.04 307.584 
L 378.647273 307.584 
L 382.254545 307.584 
L 385.861818 307.584 
L 389.469091 307.584 
L 393.076364 307.584 
L 396.683636 307.584 
L 400.290909 307.584 
L 403.898182 307.584 
L 407.505455 307.584 
L 411.112727 307.584 
L 414.72 307.584 
L 414.72 304.896 
L 414.72 302.208 
L 414.72 299.52 
L 414.72 296.832 
L 414.72 294.144 
L 414.72 291.456 
L 414.72 288.768 
L 414.72 286.08 
L 414.72 283.392 
L 414.72 280.704 
L 414.72 278.016 
L 414.72 275.328 
L 414.72 272.64 
L 414.72 269.952 
L 414.72 267.264 
L 414.72 264.576 
L 414.72 261.888 
L 414.72 259.2 
L 414.72 256.512 
L 414.72 253.824 
L 414.72 251.136 
L 414.72 248.448 
L 414.72 245.76 
L 414.72 243.072 
L 414.72 240.384 
L 414.72 237.696 
L 414.72 235.008 
L 414.72 232.32 
L 414.72 229.632 
L 414.72 226.944 
L 414.72 224.256 
L 414.72 221.568 
L 414.72 218.88 
L 414.72 216.192 
L 414.72 213.504 
L 414.72 210.816 
L 414.72 208.128 
L 414.72 205.44 
L 414.72 202.752 
L 414.72 200.064 
L 414.72 197.376 
L 414.72 194.688 
L 414.72 192 
L 414.72 189.312 
L 414.72 186.624 
L 414.72 183.936 
L 414.72 181.248 
L 414.72 178.56 
L 414.72 175.872 
L 414.72 173.184 
L 414.72 170.496 
L 414.72 167.808 
L 414.72 165.12 
L 414.72 162.432 
L 414.72 159.744 
L 414.72 157.056 
L 414.72 154.368 
L 414.72 151.68 
L 414.72 148.992 
L 414.72 146.304 
L 414.72 143.616 
L 414.72 140.928 
L 414.72 138.24 
L 414.72 135.552 
L 414.72 132.864 
L 414.72 130.176 
L 414.72 127.488 
L 414.72 124.8 
L 414.72 122.112 
L 414.72 119.424 
L 414.72 116.736 
L 414.72 114.048 
L 414.72 111.36 
L 414.72 108.672 
L 414.72 105.984 
L 414.72 103.296 
L 414.72 100.608 
L 414.72 97.92 
L 414.72 95.232 
L 414.72 92.544 
L 414.72 89.856 
L 414.72 87.168 
L 414.72 84.48 
L 414.72 81.792 
L 414.72 79.104 
L 414.72 76.416 
L 414.72 76.027753 
L 411.7542 73.728 
L 411.112727 73.230523 
L 408.26979 71.04 
L 407.505455 70.450994 
L 404.763833 68.352 
L 403.898182 67.689171 
L 401.235902 65.664 
L 400.290909 64.945062 
L 397.685561 62.976 
L 396.683636 62.218673 
L 394.11236 60.288 
L 393.076364 59.510011 
L 390.51584 57.6 
L 389.469091 56.819083 
L 386.895526 54.912 
L 385.861818 54.145896 
L 383.250933 52.224 
L 382.254545 51.490457 
L 379.581561 49.536 
L 378.647273 48.852771 
L 375.886898 46.848 
L 375.04 46.232847 
L 372.166415 44.16 
L 371.432727 43.63069 
L 368.419571 41.472 
L 367.825455 41.472 
L 364.218182 41.472 
L 360.610909 41.472 
L 357.003636 41.472 
L 353.396364 41.472 
L 349.789091 41.472 
L 346.181818 41.472 
L 342.574545 41.472 
L 338.967273 41.472 
L 335.36 41.472 
L 331.752727 41.472 
L 328.145455 41.472 
L 324.538182 41.472 
L 320.930909 41.472 
L 317.323636 41.472 
L 313.716364 41.472 
L 310.109091 41.472 
L 306.501818 41.472 
L 302.894545 41.472 
L 299.287273 41.472 
L 295.68 41.472 
L 292.072727 41.472 
L 288.465455 41.472 
L 284.858182 41.472 
L 281.250909 41.472 
L 277.643636 41.472 
L 274.036364 41.472 
L 270.429091 41.472 
L 266.821818 41.472 
L 263.214545 41.472 
L 259.607273 41.472 
L 256 41.472 
L 252.392727 41.472 
L 248.785455 41.472 
L 245.178182 41.472 
L 241.570909 41.472 
L 237.963636 41.472 
L 234.356364 41.472 
L 230.749091 41.472 
L 227.141818 41.472 
L 223.534545 41.472 
L 219.927273 41.472 
L 216.32 41.472 
L 212.712727 41.472 
L 209.105455 41.472 
L 205.498182 41.472 
L 201.890909 41.472 
L 198.283636 41.472 
L 194.676364 41.472 
L 191.069091 41.472 
L 187.461818 41.472 
L 183.854545 41.472 
L 180.247273 41.472 
L 176.64 41.472 
L 173.032727 41.472 
L 169.425455 41.472 
L 165.818182 41.472 
L 162.210909 41.472 
L 158.603636 41.472 
L 154.996364 41.472 
L 151.389091 41.472 
L 147.781818 41.472 
L 144.174545 41.472 
L 140.567273 41.472 
L 136.96 41.472 
L 133.352727 41.472 
L 129.745455 41.472 
L 126.138182 41.472 
L 122.530909 41.472 
L 118.923636 41.472 
L 115.316364 41.472 
L 111.709091 41.472 
L 108.101818 41.472 
L 104.494545 41.472 
L 104.124094 41.472 
L 104.494545 42.095449 
L 105.72993 44.16 
L 107.352987 46.848 
L 108.101818 48.07014 
L 109.006221 49.536 
L 110.684568 52.224 
L 111.709091 53.848228 
L 112.384694 54.912 
L 114.114976 57.6 
L 115.316364 59.452916 
L 115.86148 60.288 
L 117.64054 62.976 
L 118.923636 64.903896 
L 119.432901 65.664 
L 121.257769 68.352 
L 122.530909 70.217986 
L 123.095464 71.04 
L 124.96334 73.728 
L 126.138182 75.409639 
L 126.845842 76.416 
L 128.75409 79.104 
L 129.745455 80.491339 
L 130.680872 81.792 
L 132.627003 84.48 
L 133.352727 85.473932 
L 134.597537 87.168 
L 136.579206 89.856 
L 136.96 90.366881 
L 138.592965 92.544 
L 140.567273 95.176767 
L 140.608954 95.232 
L 142.664415 97.92 
L 144.174545 99.894546 
L 144.723611 100.608 
L 146.809273 103.296 
L 147.781818 104.54388 
L 148.911133 105.984 
L 151.025042 108.672 
L 151.389091 109.130738 
L 153.169028 111.36 
L 154.996364 113.649071 
L 155.316783 114.048 
L 157.494914 116.736 
L 158.603636 118.101037 
L 159.684724 119.424 
L 161.886519 122.112 
L 162.210909 122.504791 
L 164.117834 124.8 
L 165.818182 126.846945 
L 166.353914 127.488 
L 168.613946 130.176 
L 169.425455 131.137467 
L 170.891426 132.864 
L 173.032727 135.386346 
L 173.174204 135.552 
L 175.489314 138.24 
L 176.64 139.574874 
L 177.813366 140.928 
L 180.1456 143.616 
L 180.247273 143.732222 
L 182.510364 146.304 
L 183.854545 147.831787 
L 184.881375 148.992 
L 187.263315 151.68 
L 187.461818 151.902446 
L 189.674885 154.368 
L 191.069091 155.921526 
L 192.093222 157.056 
L 194.521982 159.744 
L 194.676364 159.9137 
L 196.980708 162.432 
L 198.283636 163.856133 
L 199.44672 165.12 
L 201.890909 167.776412 
L 201.920145 167.808 
L 204.425709 170.496 
L 205.498182 171.64652 
L 206.939727 173.184 
L 209.105455 175.49422 
L 209.461685 175.872 
L 212.007805 178.56 
L 212.712727 179.3026 
L 214.570144 181.248 
L 216.32 183.081026 
L 217.140948 183.936 
L 219.724956 186.624 
L 219.927273 186.833396 
L 222.335914 189.312 
L 223.534545 190.545633 
L 224.955859 192 
L 227.141818 194.237132 
L 227.584947 194.688 
L 230.23502 197.376 
L 230.749091 197.896074 
L 232.904386 200.064 
L 234.356364 201.524703 
L 235.583425 202.752 
L 237.963636 205.13302 
L 238.272307 205.44 
L 240.984537 208.128 
L 241.570909 208.70813 
L 243.713789 210.816 
L 245.178182 212.256676 
L 246.453418 213.504 
L 248.785455 215.785321 
L 249.203608 216.192 
L 251.97407 218.88 
L 252.392727 219.285244 
L 254.764692 221.568 
L 256 222.757016 
L 257.566415 224.256 
L 259.607273 226.209278 
L 260.379435 226.944 
L 263.204185 229.632 
L 263.214545 229.641816 
L 266.057669 232.32 
L 266.821818 233.039918 
L 268.922995 235.008 
L 270.429091 236.418891 
L 271.800372 237.696 
L 274.036364 239.778725 
L 274.690013 240.384 
L 277.593291 243.072 
L 277.643636 243.118445 
L 280.523737 245.76 
L 281.250909 246.427034 
L 283.467007 248.448 
L 284.858182 249.71685 
L 286.42333 251.136 
L 288.465455 252.987884 
L 289.392937 253.824 
L 292.072727 256.240129 
L 292.376067 256.512 
L 295.379931 259.2 
L 295.68 259.468097 
L 298.404497 261.888 
L 299.287273 262.672187 
L 301.44317 264.576 
L 302.894545 265.85784 
L 304.496202 267.264 
L 306.501818 269.025047 
L 307.563852 269.952 
L 310.109091 272.173802 
L 310.646387 272.64 
L 313.716364 275.304096 
L 313.744077 275.328 
L 316.867984 278.016 
L 317.323636 278.408063 
L 320.00802 280.704 
L 320.930909 281.493445 
L 323.163828 283.392 
L 324.538182 284.560707 
L 326.335697 286.08 
L 328.145455 287.60984 
L 329.523923 288.768 
L 331.752727 290.640838 
L 332.728808 291.456 
L 335.36 293.653694 
L 335.950662 294.144 
L 338.967273 296.648401 
L 339.189804 296.832 
L 342.449592 299.52 
L 342.574545 299.622926 
L 345.732244 302.208 
L 346.181818 302.576094 
L 349.032847 304.896 
z
" clip-path="url(#p230bc68184)" style="fill: #48186a"/>
    <path d="M 281.250909 307.265288 
L 281.620747 307.584 
L 284.858182 307.584 
L 288.465455 307.584 
L 292.072727 307.584 
L 295.68 307.584 
L 299.287273 307.584 
L 302.894545 307.584 
L 306.501818 307.584 
L 310.109091 307.584 
L 313.716364 307.584 
L 317.323636 307.584 
L 320.930909 307.584 
L 324.538182 307.584 
L 328.145455 307.584 
L 331.752727 307.584 
L 335.36 307.584 
L 338.967273 307.584 
L 342.574545 307.584 
L 346.181818 307.584 
L 349.789091 307.584 
L 352.351735 307.584 
L 349.789091 305.511441 
L 349.032847 304.896 
L 346.181818 302.576094 
L 345.732244 302.208 
L 342.574545 299.622926 
L 342.449592 299.52 
L 339.189804 296.832 
L 338.967273 296.648401 
L 335.950662 294.144 
L 335.36 293.653694 
L 332.728808 291.456 
L 331.752727 290.640838 
L 329.523923 288.768 
L 328.145455 287.60984 
L 326.335697 286.08 
L 324.538182 284.560707 
L 323.163828 283.392 
L 320.930909 281.493445 
L 320.00802 280.704 
L 317.323636 278.408063 
L 316.867984 278.016 
L 313.744077 275.328 
L 313.716364 275.304096 
L 310.646387 272.64 
L 310.109091 272.173802 
L 307.563852 269.952 
L 306.501818 269.025047 
L 304.496202 267.264 
L 302.894545 265.85784 
L 301.44317 264.576 
L 299.287273 262.672187 
L 298.404497 261.888 
L 295.68 259.468097 
L 295.379931 259.2 
L 292.376067 256.512 
L 292.072727 256.240129 
L 289.392937 253.824 
L 288.465455 252.987884 
L 286.42333 251.136 
L 284.858182 249.71685 
L 283.467007 248.448 
L 281.250909 246.427034 
L 280.523737 245.76 
L 277.643636 243.118445 
L 277.593291 243.072 
L 274.690013 240.384 
L 274.036364 239.778725 
L 271.800372 237.696 
L 270.429091 236.418891 
L 268.922995 235.008 
L 266.821818 233.039918 
L 266.057669 232.32 
L 263.214545 229.641816 
L 263.204185 229.632 
L 260.379435 226.944 
L 259.607273 226.209278 
L 257.566415 224.256 
L 256 222.757016 
L 254.764692 221.568 
L 252.392727 219.285244 
L 251.97407 218.88 
L 249.203608 216.192 
L 248.785455 215.785321 
L 246.453418 213.504 
L 245.178182 212.256676 
L 243.713789 210.816 
L 241.570909 208.70813 
L 240.984537 208.128 
L 238.272307 205.44 
L 237.963636 205.13302 
L 235.583425 202.752 
L 234.356364 201.524703 
L 232.904386 200.064 
L 230.749091 197.896074 
L 230.23502 197.376 
L 227.584947 194.688 
L 227.141818 194.237132 
L 224.955859 192 
L 223.534545 190.545633 
L 222.335914 189.312 
L 219.927273 186.833396 
L 219.724956 186.624 
L 217.140948 183.936 
L 216.32 183.081026 
L 214.570144 181.248 
L 212.712727 179.3026 
L 212.007805 178.56 
L 209.461685 175.872 
L 209.105455 175.49422 
L 206.939727 173.184 
L 205.498182 171.64652 
L 204.425709 170.496 
L 201.920145 167.808 
L 201.890909 167.776412 
L 199.44672 165.12 
L 198.283636 163.856133 
L 196.980708 162.432 
L 194.676364 159.9137 
L 194.521982 159.744 
L 192.093222 157.056 
L 191.069091 155.921526 
L 189.674885 154.368 
L 187.461818 151.902446 
L 187.263315 151.68 
L 184.881375 148.992 
L 183.854545 147.831787 
L 182.510364 146.304 
L 180.247273 143.732222 
L 180.1456 143.616 
L 177.813366 140.928 
L 176.64 139.574874 
L 175.489314 138.24 
L 173.174204 135.552 
L 173.032727 135.386346 
L 170.891426 132.864 
L 169.425455 131.137467 
L 168.613946 130.176 
L 166.353914 127.488 
L 165.818182 126.846945 
L 164.117834 124.8 
L 162.210909 122.504791 
L 161.886519 122.112 
L 159.684724 119.424 
L 158.603636 118.101037 
L 157.494914 116.736 
L 155.316783 114.048 
L 154.996364 113.649071 
L 153.169028 111.36 
L 151.389091 109.130738 
L 151.025042 108.672 
L 148.911133 105.984 
L 147.781818 104.54388 
L 146.809273 103.296 
L 144.723611 100.608 
L 144.174545 99.894546 
L 142.664415 97.92 
L 140.608954 95.232 
L 140.567273 95.176767 
L 138.592965 92.544 
L 136.96 90.366881 
L 136.579206 89.856 
L 134.597537 87.168 
L 133.352727 85.473932 
L 132.627003 84.48 
L 130.680872 81.792 
L 129.745455 80.491339 
L 128.75409 79.104 
L 126.845842 76.416 
L 126.138182 75.409639 
L 124.96334 73.728 
L 123.095464 71.04 
L 122.530909 70.217986 
L 121.257769 68.352 
L 119.432901 65.664 
L 118.923636 64.903896 
L 117.64054 62.976 
L 115.86148 60.288 
L 115.316364 59.452916 
L 114.114976 57.6 
L 112.384694 54.912 
L 111.709091 53.848228 
L 110.684568 52.224 
L 109.006221 49.536 
L 108.101818 48.07014 
L 107.352987 46.848 
L 105.72993 44.16 
L 104.494545 42.095449 
L 104.124094 41.472 
L 100.887273 41.472 
L 97.28 41.472 
L 93.672727 41.472 
L 90.065455 41.472 
L 86.458182 41.472 
L 82.850909 41.472 
L 79.243636 41.472 
L 75.636364 41.472 
L 72.029091 41.472 
L 68.421818 41.472 
L 64.814545 41.472 
L 61.207273 41.472 
L 57.6 41.472 
L 57.6 44.16 
L 57.6 46.848 
L 57.6 49.536 
L 57.6 52.224 
L 57.6 54.912 
L 57.6 57.6 
L 57.6 60.288 
L 57.6 62.976 
L 57.6 65.664 
L 57.6 68.352 
L 57.6 71.04 
L 57.6 73.728 
L 57.6 76.416 
L 57.6 79.104 
L 57.6 80.061531 
L 59.003042 81.792 
L 61.182451 84.48 
L 61.207273 84.51038 
L 63.387917 87.168 
L 64.814545 88.906906 
L 65.596537 89.856 
L 67.818388 92.544 
L 68.421818 93.271022 
L 70.056357 95.232 
L 72.029091 97.599022 
L 72.297745 97.92 
L 74.560427 100.608 
L 75.636364 101.884511 
L 76.83111 103.296 
L 79.107712 105.984 
L 79.243636 106.143503 
L 81.407413 108.672 
L 82.850909 110.359019 
L 83.711014 111.36 
L 86.025651 114.048 
L 86.458182 114.548141 
L 88.358205 116.736 
L 90.065455 118.702122 
L 90.694922 119.424 
L 93.046083 122.112 
L 93.672727 122.82623 
L 95.411681 124.8 
L 97.28 126.920857 
L 97.781705 127.488 
L 100.167908 130.176 
L 100.887273 130.984427 
L 102.566735 132.864 
L 104.494545 135.021767 
L 104.970249 135.552 
L 107.390042 138.24 
L 108.101818 139.028928 
L 109.822275 140.928 
L 111.709091 143.010943 
L 112.259457 143.616 
L 114.711415 146.304 
L 115.316364 146.965512 
L 117.177226 148.992 
L 118.923636 150.894065 
L 119.648247 151.68 
L 122.130974 154.368 
L 122.530909 154.799572 
L 124.630529 157.056 
L 126.138182 158.676432 
L 127.135552 159.744 
L 129.64768 162.432 
L 129.745455 162.536148 
L 132.181137 165.12 
L 133.352727 166.362998 
L 134.720323 167.808 
L 136.96 170.174704 
L 137.265309 170.496 
L 139.828022 173.184 
L 140.567273 173.958396 
L 142.401523 175.872 
L 144.174545 177.721928 
L 144.981085 178.56 
L 147.570167 181.248 
L 147.781818 181.466966 
L 150.17813 183.936 
L 151.389091 185.183845 
L 152.792415 186.624 
L 154.996364 188.886034 
L 155.413102 189.312 
L 158.049136 192 
L 158.603636 192.56445 
L 160.698286 194.688 
L 162.210909 196.221654 
L 163.354101 197.376 
L 165.818182 199.864384 
L 166.016663 200.064 
L 168.6977 202.752 
L 169.425455 203.481091 
L 171.388777 205.44 
L 173.032727 207.080425 
L 174.086867 208.128 
L 176.64 210.665496 
L 176.792057 210.816 
L 179.516139 213.504 
L 180.247273 214.225053 
L 182.249885 216.192 
L 183.854545 217.768243 
L 184.990999 218.88 
L 187.461818 221.297371 
L 187.739573 221.568 
L 190.504737 224.256 
L 191.069091 224.804017 
L 193.281898 226.944 
L 194.676364 228.292709 
L 196.066787 229.632 
L 198.283636 231.767538 
L 198.859502 232.32 
L 201.663779 235.008 
L 201.890909 235.225213 
L 204.4851 237.696 
L 205.498182 238.660986 
L 207.314519 240.384 
L 209.105455 242.083087 
L 210.152135 243.072 
L 212.712727 245.491512 
L 212.99805 245.76 
L 215.859779 248.448 
L 216.32 248.879818 
L 218.734483 251.136 
L 219.927273 252.250695 
L 221.617763 253.824 
L 223.534545 255.608084 
L 224.509727 256.512 
L 227.141818 258.951979 
L 227.410482 259.2 
L 230.32697 261.888 
L 230.749091 262.276666 
L 233.25668 264.576 
L 234.356364 265.584453 
L 236.195463 267.264 
L 237.963636 268.878929 
L 239.143435 269.952 
L 241.570909 272.160091 
L 242.10071 272.64 
L 245.069177 275.328 
L 245.178182 275.426507 
L 248.055556 278.016 
L 248.785455 278.672935 
L 251.051525 280.704 
L 252.392727 281.906226 
L 254.057205 283.392 
L 256 285.126376 
L 257.072718 286.08 
L 259.607273 288.333381 
L 260.09819 288.768 
L 263.13505 291.456 
L 263.214545 291.526234 
L 266.189927 294.144 
L 266.821818 294.699996 
L 269.255056 296.832 
L 270.429091 297.860786 
L 272.33057 299.52 
L 274.036364 301.0086 
L 275.416599 302.208 
L 277.643636 304.143436 
L 278.513279 304.896 
z
M 414.72 76.027753 
L 414.72 73.728 
L 414.72 71.04 
L 414.72 68.352 
L 414.72 65.664 
L 414.72 62.976 
L 414.72 60.288 
L 414.72 57.6 
L 414.72 54.912 
L 414.72 52.224 
L 414.72 49.536 
L 414.72 46.848 
L 414.72 44.16 
L 414.72 41.472 
L 411.112727 41.472 
L 407.505455 41.472 
L 403.898182 41.472 
L 400.290909 41.472 
L 396.683636 41.472 
L 393.076364 41.472 
L 389.469091 41.472 
L 385.861818 41.472 
L 382.254545 41.472 
L 378.647273 41.472 
L 375.04 41.472 
L 371.432727 41.472 
L 368.419571 41.472 
L 371.432727 43.63069 
L 372.166415 44.16 
L 375.04 46.232847 
L 375.886898 46.848 
L 378.647273 48.852771 
L 379.581561 49.536 
L 382.254545 51.490457 
L 383.250933 52.224 
L 385.861818 54.145896 
L 386.895526 54.912 
L 389.469091 56.819083 
L 390.51584 57.6 
L 393.076364 59.510011 
L 394.11236 60.288 
L 396.683636 62.218673 
L 397.685561 62.976 
L 400.290909 64.945062 
L 401.235902 65.664 
L 403.898182 67.689171 
L 404.763833 68.352 
L 407.505455 70.450994 
L 408.26979 71.04 
L 411.112727 73.230523 
L 411.7542 73.728 
z
" clip-path="url(#p230bc68184)" style="fill: #424086"/>
    <path d="M 227.141818 306.212183 
L 228.688469 307.584 
L 230.749091 307.584 
L 234.356364 307.584 
L 237.963636 307.584 
L 241.570909 307.584 
L 245.178182 307.584 
L 248.785455 307.584 
L 252.392727 307.584 
L 256 307.584 
L 259.607273 307.584 
L 263.214545 307.584 
L 266.821818 307.584 
L 270.429091 307.584 
L 274.036364 307.584 
L 277.643636 307.584 
L 281.250909 307.584 
L 281.620747 307.584 
L 281.250909 307.265288 
L 278.513279 304.896 
L 277.643636 304.143436 
L 275.416599 302.208 
L 274.036364 301.0086 
L 272.33057 299.52 
L 270.429091 297.860786 
L 269.255056 296.832 
L 266.821818 294.699996 
L 266.189927 294.144 
L 263.214545 291.526234 
L 263.13505 291.456 
L 260.09819 288.768 
L 259.607273 288.333381 
L 257.072718 286.08 
L 256 285.126376 
L 254.057205 283.392 
L 252.392727 281.906226 
L 251.051525 280.704 
L 248.785455 278.672935 
L 248.055556 278.016 
L 245.178182 275.426507 
L 245.069177 275.328 
L 242.10071 272.64 
L 241.570909 272.160091 
L 239.143435 269.952 
L 237.963636 268.878929 
L 236.195463 267.264 
L 234.356364 265.584453 
L 233.25668 264.576 
L 230.749091 262.276666 
L 230.32697 261.888 
L 227.410482 259.2 
L 227.141818 258.951979 
L 224.509727 256.512 
L 223.534545 255.608084 
L 221.617763 253.824 
L 219.927273 252.250695 
L 218.734483 251.136 
L 216.32 248.879818 
L 215.859779 248.448 
L 212.99805 245.76 
L 212.712727 245.491512 
L 210.152135 243.072 
L 209.105455 242.083087 
L 207.314519 240.384 
L 205.498182 238.660986 
L 204.4851 237.696 
L 201.890909 235.225213 
L 201.663779 235.008 
L 198.859502 232.32 
L 198.283636 231.767538 
L 196.066787 229.632 
L 194.676364 228.292709 
L 193.281898 226.944 
L 191.069091 224.804017 
L 190.504737 224.256 
L 187.739573 221.568 
L 187.461818 221.297371 
L 184.990999 218.88 
L 183.854545 217.768243 
L 182.249885 216.192 
L 180.247273 214.225053 
L 179.516139 213.504 
L 176.792057 210.816 
L 176.64 210.665496 
L 174.086867 208.128 
L 173.032727 207.080425 
L 171.388777 205.44 
L 169.425455 203.481091 
L 168.6977 202.752 
L 166.016663 200.064 
L 165.818182 199.864384 
L 163.354101 197.376 
L 162.210909 196.221654 
L 160.698286 194.688 
L 158.603636 192.56445 
L 158.049136 192 
L 155.413102 189.312 
L 154.996364 188.886034 
L 152.792415 186.624 
L 151.389091 185.183845 
L 150.17813 183.936 
L 147.781818 181.466966 
L 147.570167 181.248 
L 144.981085 178.56 
L 144.174545 177.721928 
L 142.401523 175.872 
L 140.567273 173.958396 
L 139.828022 173.184 
L 137.265309 170.496 
L 136.96 170.174704 
L 134.720323 167.808 
L 133.352727 166.362998 
L 132.181137 165.12 
L 129.745455 162.536148 
L 129.64768 162.432 
L 127.135552 159.744 
L 126.138182 158.676432 
L 124.630529 157.056 
L 122.530909 154.799572 
L 122.130974 154.368 
L 119.648247 151.68 
L 118.923636 150.894065 
L 117.177226 148.992 
L 115.316364 146.965512 
L 114.711415 146.304 
L 112.259457 143.616 
L 111.709091 143.010943 
L 109.822275 140.928 
L 108.101818 139.028928 
L 107.390042 138.24 
L 104.970249 135.552 
L 104.494545 135.021767 
L 102.566735 132.864 
L 100.887273 130.984427 
L 100.167908 130.176 
L 97.781705 127.488 
L 97.28 126.920857 
L 95.411681 124.8 
L 93.672727 122.82623 
L 93.046083 122.112 
L 90.694922 119.424 
L 90.065455 118.702122 
L 88.358205 116.736 
L 86.458182 114.548141 
L 86.025651 114.048 
L 83.711014 111.36 
L 82.850909 110.359019 
L 81.407413 108.672 
L 79.243636 106.143503 
L 79.107712 105.984 
L 76.83111 103.296 
L 75.636364 101.884511 
L 74.560427 100.608 
L 72.297745 97.92 
L 72.029091 97.599022 
L 70.056357 95.232 
L 68.421818 93.271022 
L 67.818388 92.544 
L 65.596537 89.856 
L 64.814545 88.906906 
L 63.387917 87.168 
L 61.207273 84.51038 
L 61.182451 84.48 
L 59.003042 81.792 
L 57.6 80.061531 
L 57.6 81.792 
L 57.6 84.48 
L 57.6 87.168 
L 57.6 89.856 
L 57.6 92.544 
L 57.6 95.232 
L 57.6 97.92 
L 57.6 100.608 
L 57.6 103.296 
L 57.6 105.984 
L 57.6 108.672 
L 57.6 111.36 
L 57.6 114.048 
L 57.6 116.736 
L 57.6 119.424 
L 57.6 122.112 
L 57.6 124.8 
L 57.6 127.488 
L 57.6 130.176 
L 57.6 132.864 
L 57.6 135.552 
L 57.6 138.24 
L 57.6 140.459198 
L 58.032326 140.928 
L 60.517636 143.616 
L 61.207273 144.360705 
L 63.012922 146.304 
L 64.814545 148.24314 
L 65.512647 148.992 
L 68.022087 151.68 
L 68.421818 152.107076 
L 70.54508 154.368 
L 72.029091 155.948371 
L 73.072685 157.056 
L 75.605355 159.744 
L 75.636364 159.776785 
L 78.156158 162.432 
L 79.243636 163.578024 
L 80.711748 165.12 
L 82.850909 167.366988 
L 83.272172 167.808 
L 85.845476 170.496 
L 86.458182 171.135072 
L 88.42915 173.184 
L 90.065455 174.885178 
L 91.017832 175.872 
L 93.612359 178.56 
L 93.672727 178.622331 
L 96.224213 181.248 
L 97.28 182.334578 
L 98.84125 183.936 
L 100.887273 186.034851 
L 101.463522 186.624 
L 104.096268 189.312 
L 104.494545 189.717825 
L 106.741754 192 
L 108.101818 193.381346 
L 109.39265 194.688 
L 111.709091 197.033037 
L 112.049011 197.376 
L 114.718678 200.064 
L 115.316364 200.665111 
L 117.398288 202.752 
L 118.923636 204.281115 
L 120.08354 205.44 
L 122.530909 207.885428 
L 122.77449 208.128 
L 125.479777 210.816 
L 126.138182 211.469691 
L 128.194006 213.504 
L 129.745455 215.039341 
L 130.91411 216.192 
L 133.352727 218.597437 
L 133.640151 218.88 
L 136.379753 221.568 
L 136.96 222.136795 
L 139.129096 224.256 
L 140.567273 225.661213 
L 141.884554 226.944 
L 144.174545 229.174211 
L 144.646188 229.632 
L 147.418796 232.32 
L 147.781818 232.671403 
L 150.20375 235.008 
L 151.389091 236.15167 
L 152.995061 237.696 
L 154.996364 239.620647 
L 155.792792 240.384 
L 158.597094 243.072 
L 158.603636 243.078254 
L 161.418159 245.76 
L 162.210909 246.515413 
L 164.245825 248.448 
L 165.818182 249.94141 
L 167.080159 251.136 
L 169.425455 253.356242 
L 169.921229 253.824 
L 172.772512 256.512 
L 173.032727 256.756925 
L 175.637036 259.2 
L 176.64 260.140945 
L 178.50848 261.888 
L 180.247273 263.513925 
L 181.386914 264.576 
L 183.854545 266.875863 
L 184.272409 267.264 
L 187.168889 269.952 
L 187.461818 270.223489 
L 190.077951 272.64 
L 191.069091 273.555584 
L 192.994261 275.328 
L 194.676364 276.876758 
L 195.917891 278.016 
L 198.283636 280.18701 
L 198.848918 280.704 
L 201.788766 283.392 
L 201.890909 283.485227 
L 204.743464 286.08 
L 205.498182 286.766568 
L 207.705748 288.768 
L 209.105455 290.037107 
L 210.675694 291.456 
L 212.712727 293.296839 
L 213.653383 294.144 
L 216.32 296.545763 
L 216.638892 296.832 
L 219.636175 299.52 
L 219.927273 299.78081 
L 222.645564 302.208 
L 223.534545 303.001842 
L 225.662967 304.896 
z
" clip-path="url(#p230bc68184)" style="fill: #33638d"/>
    <path d="M 183.854545 307.016861 
L 184.483626 307.584 
L 187.461818 307.584 
L 191.069091 307.584 
L 194.676364 307.584 
L 198.283636 307.584 
L 201.890909 307.584 
L 205.498182 307.584 
L 209.105455 307.584 
L 212.712727 307.584 
L 216.32 307.584 
L 219.927273 307.584 
L 223.534545 307.584 
L 227.141818 307.584 
L 228.688469 307.584 
L 227.141818 306.212183 
L 225.662967 304.896 
L 223.534545 303.001842 
L 222.645564 302.208 
L 219.927273 299.78081 
L 219.636175 299.52 
L 216.638892 296.832 
L 216.32 296.545763 
L 213.653383 294.144 
L 212.712727 293.296839 
L 210.675694 291.456 
L 209.105455 290.037107 
L 207.705748 288.768 
L 205.498182 286.766568 
L 204.743464 286.08 
L 201.890909 283.485227 
L 201.788766 283.392 
L 198.848918 280.704 
L 198.283636 280.18701 
L 195.917891 278.016 
L 194.676364 276.876758 
L 192.994261 275.328 
L 191.069091 273.555584 
L 190.077951 272.64 
L 187.461818 270.223489 
L 187.168889 269.952 
L 184.272409 267.264 
L 183.854545 266.875863 
L 181.386914 264.576 
L 180.247273 263.513925 
L 178.50848 261.888 
L 176.64 260.140945 
L 175.637036 259.2 
L 173.032727 256.756925 
L 172.772512 256.512 
L 169.921229 253.824 
L 169.425455 253.356242 
L 167.080159 251.136 
L 165.818182 249.94141 
L 164.245825 248.448 
L 162.210909 246.515413 
L 161.418159 245.76 
L 158.603636 243.078254 
L 158.597094 243.072 
L 155.792792 240.384 
L 154.996364 239.620647 
L 152.995061 237.696 
L 151.389091 236.15167 
L 150.20375 235.008 
L 147.781818 232.671403 
L 147.418796 232.32 
L 144.646188 229.632 
L 144.174545 229.174211 
L 141.884554 226.944 
L 140.567273 225.661213 
L 139.129096 224.256 
L 136.96 222.136795 
L 136.379753 221.568 
L 133.640151 218.88 
L 133.352727 218.597437 
L 130.91411 216.192 
L 129.745455 215.039341 
L 128.194006 213.504 
L 126.138182 211.469691 
L 125.479777 210.816 
L 122.77449 208.128 
L 122.530909 207.885428 
L 120.08354 205.44 
L 118.923636 204.281115 
L 117.398288 202.752 
L 115.316364 200.665111 
L 114.718678 200.064 
L 112.049011 197.376 
L 111.709091 197.033037 
L 109.39265 194.688 
L 108.101818 193.381346 
L 106.741754 192 
L 104.494545 189.717825 
L 104.096268 189.312 
L 101.463522 186.624 
L 100.887273 186.034851 
L 98.84125 183.936 
L 97.28 182.334578 
L 96.224213 181.248 
L 93.672727 178.622331 
L 93.612359 178.56 
L 91.017832 175.872 
L 90.065455 174.885178 
L 88.42915 173.184 
L 86.458182 171.135072 
L 85.845476 170.496 
L 83.272172 167.808 
L 82.850909 167.366988 
L 80.711748 165.12 
L 79.243636 163.578024 
L 78.156158 162.432 
L 75.636364 159.776785 
L 75.605355 159.744 
L 73.072685 157.056 
L 72.029091 155.948371 
L 70.54508 154.368 
L 68.421818 152.107076 
L 68.022087 151.68 
L 65.512647 148.992 
L 64.814545 148.24314 
L 63.012922 146.304 
L 61.207273 144.360705 
L 60.517636 143.616 
L 58.032326 140.928 
L 57.6 140.459198 
L 57.6 140.928 
L 57.6 143.616 
L 57.6 146.304 
L 57.6 148.992 
L 57.6 151.68 
L 57.6 154.368 
L 57.6 157.056 
L 57.6 159.744 
L 57.6 162.432 
L 57.6 165.12 
L 57.6 167.808 
L 57.6 170.496 
L 57.6 173.184 
L 57.6 175.872 
L 57.6 178.56 
L 57.6 181.248 
L 57.6 183.936 
L 57.6 186.005171 
L 58.206661 186.624 
L 60.844627 189.312 
L 61.207273 189.680852 
L 63.493994 192 
L 64.814545 193.339378 
L 66.148066 194.688 
L 68.421818 196.987671 
L 68.806886 197.376 
L 71.476717 200.064 
L 72.029091 200.619512 
L 74.155663 202.752 
L 75.636364 204.236929 
L 76.839488 205.44 
L 79.243636 207.844219 
L 79.528235 208.128 
L 82.228956 210.816 
L 82.850909 211.43453 
L 84.937851 213.504 
L 86.458182 215.011712 
L 87.651802 216.192 
L 90.065455 218.578869 
L 90.370851 218.88 
L 93.101485 221.568 
L 93.672727 222.129845 
L 95.840701 224.256 
L 97.28 225.667637 
L 98.585151 226.944 
L 100.887273 229.195506 
L 101.334879 229.632 
L 104.094445 232.32 
L 104.494545 232.709231 
L 106.864355 235.008 
L 108.101818 236.208453 
L 109.639679 237.696 
L 111.709091 239.697851 
L 112.420463 240.384 
L 115.207978 243.072 
L 115.316364 243.176303 
L 118.008956 245.76 
L 118.923636 246.63775 
L 120.815529 248.448 
L 122.530909 250.089469 
L 123.627748 251.136 
L 126.138182 253.531459 
L 126.44566 253.824 
L 129.274647 256.512 
L 129.745455 256.958972 
L 132.112847 259.2 
L 133.352727 260.373781 
L 134.956878 261.888 
L 136.96 263.778955 
L 137.806792 264.576 
L 140.567273 267.174492 
L 140.66264 267.264 
L 143.531775 269.952 
L 144.174545 270.554065 
L 146.407999 272.64 
L 147.781818 273.923167 
L 149.290296 275.328 
L 151.389091 277.282725 
L 152.17872 278.016 
L 154.996364 280.632737 
L 155.073324 280.704 
L 157.981257 283.392 
L 158.603636 283.96722 
L 160.89632 286.08 
L 162.210909 287.291518 
L 163.817705 288.768 
L 165.818182 290.606361 
L 166.745466 291.456 
L 169.425455 293.911749 
L 169.679661 294.144 
L 172.625009 296.832 
L 173.032727 297.20385 
L 175.579741 299.52 
L 176.64 300.484221 
L 178.541049 302.208 
L 180.247273 303.755225 
L 181.508991 304.896 
z
" clip-path="url(#p230bc68184)" style="fill: #26828e"/>
    <path d="M 144.174545 306.154918 
L 145.741412 307.584 
L 147.781818 307.584 
L 151.389091 307.584 
L 154.996364 307.584 
L 158.603636 307.584 
L 162.210909 307.584 
L 165.818182 307.584 
L 169.425455 307.584 
L 173.032727 307.584 
L 176.64 307.584 
L 180.247273 307.584 
L 183.854545 307.584 
L 184.483626 307.584 
L 183.854545 307.016861 
L 181.508991 304.896 
L 180.247273 303.755225 
L 178.541049 302.208 
L 176.64 300.484221 
L 175.579741 299.52 
L 173.032727 297.20385 
L 172.625009 296.832 
L 169.679661 294.144 
L 169.425455 293.911749 
L 166.745466 291.456 
L 165.818182 290.606361 
L 163.817705 288.768 
L 162.210909 287.291518 
L 160.89632 286.08 
L 158.603636 283.96722 
L 157.981257 283.392 
L 155.073324 280.704 
L 154.996364 280.632737 
L 152.17872 278.016 
L 151.389091 277.282725 
L 149.290296 275.328 
L 147.781818 273.923167 
L 146.407999 272.64 
L 144.174545 270.554065 
L 143.531775 269.952 
L 140.66264 267.264 
L 140.567273 267.174492 
L 137.806792 264.576 
L 136.96 263.778955 
L 134.956878 261.888 
L 133.352727 260.373781 
L 132.112847 259.2 
L 129.745455 256.958972 
L 129.274647 256.512 
L 126.44566 253.824 
L 126.138182 253.531459 
L 123.627748 251.136 
L 122.530909 250.089469 
L 120.815529 248.448 
L 118.923636 246.63775 
L 118.008956 245.76 
L 115.316364 243.176303 
L 115.207978 243.072 
L 112.420463 240.384 
L 111.709091 239.697851 
L 109.639679 237.696 
L 108.101818 236.208453 
L 106.864355 235.008 
L 104.494545 232.709231 
L 104.094445 232.32 
L 101.334879 229.632 
L 100.887273 229.195506 
L 98.585151 226.944 
L 97.28 225.667637 
L 95.840701 224.256 
L 93.672727 222.129845 
L 93.101485 221.568 
L 90.370851 218.88 
L 90.065455 218.578869 
L 87.651802 216.192 
L 86.458182 215.011712 
L 84.937851 213.504 
L 82.850909 211.43453 
L 82.228956 210.816 
L 79.528235 208.128 
L 79.243636 207.844219 
L 76.839488 205.44 
L 75.636364 204.236929 
L 74.155663 202.752 
L 72.029091 200.619512 
L 71.476717 200.064 
L 68.806886 197.376 
L 68.421818 196.987671 
L 66.148066 194.688 
L 64.814545 193.339378 
L 63.493994 192 
L 61.207273 189.680852 
L 60.844627 189.312 
L 58.206661 186.624 
L 57.6 186.005171 
L 57.6 186.624 
L 57.6 189.312 
L 57.6 192 
L 57.6 194.688 
L 57.6 197.376 
L 57.6 200.064 
L 57.6 202.752 
L 57.6 205.44 
L 57.6 208.128 
L 57.6 210.816 
L 57.6 213.504 
L 57.6 216.192 
L 57.6 218.88 
L 57.6 221.568 
L 57.6 224.146426 
L 57.711454 224.256 
L 60.451026 226.944 
L 61.207273 227.685835 
L 63.196386 229.632 
L 64.814545 231.215323 
L 65.94646 232.32 
L 68.421818 234.735948 
L 68.701286 235.008 
L 71.466574 237.696 
L 72.029091 238.242421 
L 74.239467 240.384 
L 75.636364 241.737505 
L 77.017219 243.072 
L 79.243636 245.223805 
L 79.799868 245.76 
L 82.590085 248.448 
L 82.850909 248.698915 
L 85.39081 251.136 
L 86.458182 252.160228 
L 88.196541 253.824 
L 90.065455 255.612836 
L 91.007317 256.512 
L 93.672727 259.056736 
L 93.823177 259.2 
L 96.650531 261.888 
L 97.28 262.486244 
L 99.484543 264.576 
L 100.887273 265.905775 
L 102.323748 267.264 
L 104.494545 269.316674 
L 105.168188 269.952 
L 108.018745 272.64 
L 108.101818 272.718204 
L 110.881339 275.328 
L 111.709091 276.105256 
L 113.749278 278.016 
L 115.316364 279.483751 
L 116.622603 280.704 
L 118.923636 282.853688 
L 119.501358 283.392 
L 122.387045 286.08 
L 122.530909 286.213817 
L 125.284022 288.768 
L 126.138182 289.56049 
L 128.186539 291.456 
L 129.745455 292.898679 
L 131.09464 294.144 
L 133.352727 296.228381 
L 134.00837 296.832 
L 136.928097 299.52 
L 136.96 299.549324 
L 139.860113 302.208 
L 140.567273 302.856328 
L 142.797869 304.896 
z
" clip-path="url(#p230bc68184)" style="fill: #1fa088"/>
    <path d="M 108.101818 305.078895 
L 110.824942 307.584 
L 111.709091 307.584 
L 115.316364 307.584 
L 118.923636 307.584 
L 122.530909 307.584 
L 126.138182 307.584 
L 129.745455 307.584 
L 133.352727 307.584 
L 136.96 307.584 
L 140.567273 307.584 
L 144.174545 307.584 
L 145.741412 307.584 
L 144.174545 306.154918 
L 142.797869 304.896 
L 140.567273 302.856328 
L 139.860113 302.208 
L 136.96 299.549324 
L 136.928097 299.52 
L 134.00837 296.832 
L 133.352727 296.228381 
L 131.09464 294.144 
L 129.745455 292.898679 
L 128.186539 291.456 
L 126.138182 289.56049 
L 125.284022 288.768 
L 122.530909 286.213817 
L 122.387045 286.08 
L 119.501358 283.392 
L 118.923636 282.853688 
L 116.622603 280.704 
L 115.316364 279.483751 
L 113.749278 278.016 
L 111.709091 276.105256 
L 110.881339 275.328 
L 108.101818 272.718204 
L 108.018745 272.64 
L 105.168188 269.952 
L 104.494545 269.316674 
L 102.323748 267.264 
L 100.887273 265.905775 
L 99.484543 264.576 
L 97.28 262.486244 
L 96.650531 261.888 
L 93.823177 259.2 
L 93.672727 259.056736 
L 91.007317 256.512 
L 90.065455 255.612836 
L 88.196541 253.824 
L 86.458182 252.160228 
L 85.39081 251.136 
L 82.850909 248.698915 
L 82.590085 248.448 
L 79.799868 245.76 
L 79.243636 245.223805 
L 77.017219 243.072 
L 75.636364 241.737505 
L 74.239467 240.384 
L 72.029091 238.242421 
L 71.466574 237.696 
L 68.701286 235.008 
L 68.421818 234.735948 
L 65.94646 232.32 
L 64.814545 231.215323 
L 63.196386 229.632 
L 61.207273 227.685835 
L 60.451026 226.944 
L 57.711454 224.256 
L 57.6 224.146426 
L 57.6 224.256 
L 57.6 226.944 
L 57.6 229.632 
L 57.6 232.32 
L 57.6 235.008 
L 57.6 237.696 
L 57.6 240.384 
L 57.6 243.072 
L 57.6 245.76 
L 57.6 248.448 
L 57.6 251.136 
L 57.6 253.824 
L 57.6 256.512 
L 57.6 257.623647 
L 59.247399 259.2 
L 61.207273 261.075459 
L 62.058406 261.888 
L 64.814545 264.519322 
L 64.874054 264.576 
L 67.701032 267.264 
L 68.421818 267.949293 
L 70.533252 269.952 
L 72.029091 271.370893 
L 73.370205 272.64 
L 75.636364 274.784607 
L 76.211924 275.328 
L 79.060139 278.016 
L 79.243636 278.188948 
L 81.918433 280.704 
L 82.850909 281.580836 
L 84.781586 283.392 
L 86.458182 284.964901 
L 87.649631 286.08 
L 90.065455 288.341142 
L 90.522604 288.768 
L 93.403039 291.456 
L 93.672727 291.707414 
L 96.292645 294.144 
L 97.28 295.062316 
L 99.187271 296.832 
L 100.887273 298.409455 
L 102.086954 299.52 
L 104.494545 301.748831 
L 104.991731 302.208 
L 107.903479 304.896 
z
" clip-path="url(#p230bc68184)" style="fill: #3fbc73"/>
    <path d="M 79.243636 307.584 
L 82.850909 307.584 
L 86.458182 307.584 
L 90.065455 307.584 
L 93.672727 307.584 
L 97.28 307.584 
L 100.887273 307.584 
L 104.494545 307.584 
L 108.101818 307.584 
L 110.824942 307.584 
L 108.101818 305.078895 
L 107.903479 304.896 
L 104.991731 302.208 
L 104.494545 301.748831 
L 102.086954 299.52 
L 100.887273 298.409455 
L 99.187271 296.832 
L 97.28 295.062316 
L 96.292645 294.144 
L 93.672727 291.707414 
L 93.403039 291.456 
L 90.522604 288.768 
L 90.065455 288.341142 
L 87.649631 286.08 
L 86.458182 284.964901 
L 84.781586 283.392 
L 82.850909 281.580836 
L 81.918433 280.704 
L 79.243636 278.188948 
L 79.060139 278.016 
L 76.211924 275.328 
L 75.636364 274.784607 
L 73.370205 272.64 
L 72.029091 271.370893 
L 70.533252 269.952 
L 68.421818 267.949293 
L 67.701032 267.264 
L 64.874054 264.576 
L 64.814545 264.519322 
L 62.058406 261.888 
L 61.207273 261.075459 
L 59.247399 259.2 
L 57.6 257.623647 
L 57.6 259.2 
L 57.6 261.888 
L 57.6 264.576 
L 57.6 267.264 
L 57.6 269.952 
L 57.6 272.64 
L 57.6 275.328 
L 57.6 278.016 
L 57.6 280.704 
L 57.6 283.392 
L 57.6 286.08 
L 57.6 287.823134 
L 58.606382 288.768 
L 61.207273 291.210035 
L 61.469817 291.456 
L 64.341852 294.144 
L 64.814545 294.586173 
L 67.220681 296.832 
L 68.421818 297.95317 
L 70.104109 299.52 
L 72.029091 301.312958 
L 72.992165 302.208 
L 75.636364 304.665536 
L 75.884882 304.896 
L 78.78622 307.584 
z
" clip-path="url(#p230bc68184)" style="fill: #84d44b"/>
    <path d="M 61.207273 307.584 
L 64.814545 307.584 
L 68.421818 307.584 
L 72.029091 307.584 
L 75.636364 307.584 
L 78.78622 307.584 
L 75.884882 304.896 
L 75.636364 304.665536 
L 72.992165 302.208 
L 72.029091 301.312958 
L 70.104109 299.52 
L 68.421818 297.95317 
L 67.220681 296.832 
L 64.814545 294.586173 
L 64.341852 294.144 
L 61.469817 291.456 
L 61.207273 291.210035 
L 58.606382 288.768 
L 57.6 287.823134 
L 57.6 288.768 
L 57.6 291.456 
L 57.6 294.144 
L 57.6 296.832 
L 57.6 299.52 
L 57.6 302.208 
L 57.6 304.896 
L 57.6 307.584 
z
" clip-path="url(#p230bc68184)" style="fill: #d8e219"/>
   </g>
   <g id="matplotlib.axis_1">
    <g id="xtick_1">
     <g id="line2d_1">
      <defs>
       <path id="mdffa80aef3" d="M 0 0 
L 0 3.5 
" style="stroke: #000000; stroke-width: 0.8"/>
      </defs>
      <g>
       <use xlink:href="#mdffa80aef3" x="93.672727" y="307.584" style="stroke: #000000; stroke-width: 0.8"/>
      </g>
     </g>
     <g id="text_1">
      <!-- −0.4 -->
      <g transform="translate(81.531321 322.182437) scale(0.1 -0.1)">
       <defs>
        <path id="DejaVuSans-2212" d="M 678 2272 
L 4684 2272 
L 4684 1741 
L 678 1741 
L 678 2272 
z
" transform="scale(0.015625)"/>
        <path id="DejaVuSans-30" d="M 2034 4250 
Q 1547 4250 1301 3770 
Q 1056 3291 1056 2328 
Q 1056 1369 1301 889 
Q 1547 409 2034 409 
Q 2525 409 2770 889 
Q 3016 1369 3016 2328 
Q 3016 3291 2770 3770 
Q 2525 4250 2034 4250 
z
M 2034 4750 
Q 2819 4750 3233 4129 
Q 3647 3509 3647 2328 
Q 3647 1150 3233 529 
Q 2819 -91 2034 -91 
Q 1250 -91 836 529 
Q 422 1150 422 2328 
Q 422 3509 836 4129 
Q 1250 4750 2034 4750 
z
" transform="scale(0.015625)"/>
        <path id="DejaVuSans-2e" d="M 684 794 
L 1344 794 
L 1344 0 
L 684 0 
L 684 794 
z
" transform="scale(0.015625)"/>
        <path id="DejaVuSans-34" d="M 2419 4116 
L 825 1625 
L 2419 1625 
L 2419 4116 
z
M 2253 4666 
L 3047 4666 
L 3047 1625 
L 3713 1625 
L 3713 1100 
L 3047 1100 
L 3047 0 
L 2419 0 
L 2419 1100 
L 313 1100 
L 313 1709 
L 2253 4666 
z
" transform="scale(0.015625)"/>
       </defs>
       <use xlink:href="#DejaVuSans-2212"/>
       <use xlink:href="#DejaVuSans-30" transform="translate(83.789062 0)"/>
       <use xlink:href="#DejaVuSans-2e" transform="translate(147.412109 0)"/>
       <use xlink:href="#DejaVuSans-34" transform="translate(179.199219 0)"/>
      </g>
     </g>
    </g>
    <g id="xtick_2">
     <g id="line2d_2">
      <g>
       <use xlink:href="#mdffa80aef3" x="165.818182" y="307.584" style="stroke: #000000; stroke-width: 0.8"/>
      </g>
     </g>
     <g id="text_2">
      <!-- −0.2 -->
      <g transform="translate(153.676776 322.182437) scale(0.1 -0.1)">
       <defs>
        <path id="DejaVuSans-32" d="M 1228 531 
L 3431 531 
L 3431 0 
L 469 0 
L 469 531 
Q 828 903 1448 1529 
Q 2069 2156 2228 2338 
Q 2531 2678 2651 2914 
Q 2772 3150 2772 3378 
Q 2772 3750 2511 3984 
Q 2250 4219 1831 4219 
Q 1534 4219 1204 4116 
Q 875 4013 500 3803 
L 500 4441 
Q 881 4594 1212 4672 
Q 1544 4750 1819 4750 
Q 2544 4750 2975 4387 
Q 3406 4025 3406 3419 
Q 3406 3131 3298 2873 
Q 3191 2616 2906 2266 
Q 2828 2175 2409 1742 
Q 1991 1309 1228 531 
z
" transform="scale(0.015625)"/>
       </defs>
       <use xlink:href="#DejaVuSans-2212"/>
       <use xlink:href="#DejaVuSans-30" transform="translate(83.789062 0)"/>
       <use xlink:href="#DejaVuSans-2e" transform="translate(147.412109 0)"/>
       <use xlink:href="#DejaVuSans-32" transform="translate(179.199219 0)"/>
      </g>
     </g>
    </g>
    <g id="xtick_3">
     <g id="line2d_3">
      <g>
       <use xlink:href="#mdffa80aef3" x="237.963636" y="307.584" style="stroke: #000000; stroke-width: 0.8"/>
      </g>
     </g>
     <g id="text_3">
      <!-- 0.0 -->
      <g transform="translate(230.012074 322.182437) scale(0.1 -0.1)">
       <use xlink:href="#DejaVuSans-30"/>
       <use xlink:href="#DejaVuSans-2e" transform="translate(63.623047 0)"/>
       <use xlink:href="#DejaVuSans-30" transform="translate(95.410156 0)"/>
      </g>
     </g>
    </g>
    <g id="xtick_4">
     <g id="line2d_4">
      <g>
       <use xlink:href="#mdffa80aef3" x="310.109091" y="307.584" style="stroke: #000000; stroke-width: 0.8"/>
      </g>
     </g>
     <g id="text_4">
      <!-- 0.2 -->
      <g transform="translate(302.157528 322.182437) scale(0.1 -0.1)">
       <use xlink:href="#DejaVuSans-30"/>
       <use xlink:href="#DejaVuSans-2e" transform="translate(63.623047 0)"/>
       <use xlink:href="#DejaVuSans-32" transform="translate(95.410156 0)"/>
      </g>
     </g>
    </g>
    <g id="xtick_5">
     <g id="line2d_5">
      <g>
       <use xlink:href="#mdffa80aef3" x="382.254545" y="307.584" style="stroke: #000000; stroke-width: 0.8"/>
      </g>
     </g>
     <g id="text_5">
      <!-- 0.4 -->
      <g transform="translate(374.302983 322.182437) scale(0.1 -0.1)">
       <use xlink:href="#DejaVuSans-30"/>
       <use xlink:href="#DejaVuSans-2e" transform="translate(63.623047 0)"/>
       <use xlink:href="#DejaVuSans-34" transform="translate(95.410156 0)"/>
      </g>
     </g>
    </g>
    <g id="text_6">
     <!-- v_0 (m/s) -->
     <g transform="translate(212.869375 335.849625) scale(0.1 -0.1)">
      <defs>
       <path id="DejaVuSans-76" d="M 191 3500 
L 800 3500 
L 1894 563 
L 2988 3500 
L 3597 3500 
L 2284 0 
L 1503 0 
L 191 3500 
z
" transform="scale(0.015625)"/>
       <path id="DejaVuSans-5f" d="M 3263 -1063 
L 3263 -1509 
L -63 -1509 
L -63 -1063 
L 3263 -1063 
z
" transform="scale(0.015625)"/>
       <path id="DejaVuSans-20" transform="scale(0.015625)"/>
       <path id="DejaVuSans-28" d="M 1984 4856 
Q 1566 4138 1362 3434 
Q 1159 2731 1159 2009 
Q 1159 1288 1364 580 
Q 1569 -128 1984 -844 
L 1484 -844 
Q 1016 -109 783 600 
Q 550 1309 550 2009 
Q 550 2706 781 3412 
Q 1013 4119 1484 4856 
L 1984 4856 
z
" transform="scale(0.015625)"/>
       <path id="DejaVuSans-6d" d="M 3328 2828 
Q 3544 3216 3844 3400 
Q 4144 3584 4550 3584 
Q 5097 3584 5394 3201 
Q 5691 2819 5691 2113 
L 5691 0 
L 5113 0 
L 5113 2094 
Q 5113 2597 4934 2840 
Q 4756 3084 4391 3084 
Q 3944 3084 3684 2787 
Q 3425 2491 3425 1978 
L 3425 0 
L 2847 0 
L 2847 2094 
Q 2847 2600 2669 2842 
Q 2491 3084 2119 3084 
Q 1678 3084 1418 2786 
Q 1159 2488 1159 1978 
L 1159 0 
L 581 0 
L 581 3500 
L 1159 3500 
L 1159 2956 
Q 1356 3278 1631 3431 
Q 1906 3584 2284 3584 
Q 2666 3584 2933 3390 
Q 3200 3197 3328 2828 
z
" transform="scale(0.015625)"/>
       <path id="DejaVuSans-2f" d="M 1625 4666 
L 2156 4666 
L 531 -594 
L 0 -594 
L 1625 4666 
z
" transform="scale(0.015625)"/>
       <path id="DejaVuSans-73" d="M 2834 3397 
L 2834 2853 
Q 2591 2978 2328 3040 
Q 2066 3103 1784 3103 
Q 1356 3103 1142 2972 
Q 928 2841 928 2578 
Q 928 2378 1081 2264 
Q 1234 2150 1697 2047 
L 1894 2003 
Q 2506 1872 2764 1633 
Q 3022 1394 3022 966 
Q 3022 478 2636 193 
Q 2250 -91 1575 -91 
Q 1294 -91 989 -36 
Q 684 19 347 128 
L 347 722 
Q 666 556 975 473 
Q 1284 391 1588 391 
Q 1994 391 2212 530 
Q 2431 669 2431 922 
Q 2431 1156 2273 1281 
Q 2116 1406 1581 1522 
L 1381 1569 
Q 847 1681 609 1914 
Q 372 2147 372 2553 
Q 372 3047 722 3315 
Q 1072 3584 1716 3584 
Q 2034 3584 2315 3537 
Q 2597 3491 2834 3397 
z
" transform="scale(0.015625)"/>
       <path id="DejaVuSans-29" d="M 513 4856 
L 1013 4856 
Q 1481 4119 1714 3412 
Q 1947 2706 1947 2009 
Q 1947 1309 1714 600 
Q 1481 -109 1013 -844 
L 513 -844 
Q 928 -128 1133 580 
Q 1338 1288 1338 2009 
Q 1338 2731 1133 3434 
Q 928 4138 513 4856 
z
" transform="scale(0.015625)"/>
      </defs>
      <use xlink:href="#DejaVuSans-76"/>
      <use xlink:href="#DejaVuSans-5f" transform="translate(59.179688 0)"/>
      <use xlink:href="#DejaVuSans-30" transform="translate(109.179688 0)"/>
      <use xlink:href="#DejaVuSans-20" transform="translate(172.802734 0)"/>
      <use xlink:href="#DejaVuSans-28" transform="translate(204.589844 0)"/>
      <use xlink:href="#DejaVuSans-6d" transform="translate(243.603516 0)"/>
      <use xlink:href="#DejaVuSans-2f" transform="translate(341.015625 0)"/>
      <use xlink:href="#DejaVuSans-73" transform="translate(374.707031 0)"/>
      <use xlink:href="#DejaVuSans-29" transform="translate(426.806641 0)"/>
     </g>
    </g>
   </g>
   <g id="matplotlib.axis_2">
    <g id="ytick_1">
     <g id="line2d_6">
      <defs>
       <path id="mfdbf5b379d" d="M 0 0 
L -3.5 0 
" style="stroke: #000000; stroke-width: 0.8"/>
      </defs>
      <g>
       <use xlink:href="#mfdbf5b379d" x="57.6" y="280.704" style="stroke: #000000; stroke-width: 0.8"/>
      </g>
     </g>
     <g id="text_7">
      <!-- −0.4 -->
      <g transform="translate(26.317187 284.503219) scale(0.1 -0.1)">
       <use xlink:href="#DejaVuSans-2212"/>
       <use xlink:href="#DejaVuSans-30" transform="translate(83.789062 0)"/>
       <use xlink:href="#DejaVuSans-2e" transform="translate(147.412109 0)"/>
       <use xlink:href="#DejaVuSans-34" transform="translate(179.199219 0)"/>
      </g>
     </g>
    </g>
    <g id="ytick_2">
     <g id="line2d_7">
      <g>
       <use xlink:href="#mfdbf5b379d" x="57.6" y="226.944" style="stroke: #000000; stroke-width: 0.8"/>
      </g>
     </g>
     <g id="text_8">
      <!-- −0.2 -->
      <g transform="translate(26.317187 230.743219) scale(0.1 -0.1)">
       <use xlink:href="#DejaVuSans-2212"/>
       <use xlink:href="#DejaVuSans-30" transform="translate(83.789062 0)"/>
       <use xlink:href="#DejaVuSans-2e" transform="translate(147.412109 0)"/>
       <use xlink:href="#DejaVuSans-32" transform="translate(179.199219 0)"/>
      </g>
     </g>
    </g>
    <g id="ytick_3">
     <g id="line2d_8">
      <g>
       <use xlink:href="#mfdbf5b379d" x="57.6" y="173.184" style="stroke: #000000; stroke-width: 0.8"/>
      </g>
     </g>
     <g id="text_9">
      <!-- 0.0 -->
      <g transform="translate(34.696875 176.983219) scale(0.1 -0.1)">
       <use xlink:href="#DejaVuSans-30"/>
       <use xlink:href="#DejaVuSans-2e" transform="translate(63.623047 0)"/>
       <use xlink:href="#DejaVuSans-30" transform="translate(95.410156 0)"/>
      </g>
     </g>
    </g>
    <g id="ytick_4">
     <g id="line2d_9">
      <g>
       <use xlink:href="#mfdbf5b379d" x="57.6" y="119.424" style="stroke: #000000; stroke-width: 0.8"/>
      </g>
     </g>
     <g id="text_10">
      <!-- 0.2 -->
      <g transform="translate(34.696875 123.223219) scale(0.1 -0.1)">
       <use xlink:href="#DejaVuSans-30"/>
       <use xlink:href="#DejaVuSans-2e" transform="translate(63.623047 0)"/>
       <use xlink:href="#DejaVuSans-32" transform="translate(95.410156 0)"/>
      </g>
     </g>
    </g>
    <g id="ytick_5">
     <g id="line2d_10">
      <g>
       <use xlink:href="#mfdbf5b379d" x="57.6" y="65.664" style="stroke: #000000; stroke-width: 0.8"/>
      </g>
     </g>
     <g id="text_11">
      <!-- 0.4 -->
      <g transform="translate(34.696875 69.463219) scale(0.1 -0.1)">
       <use xlink:href="#DejaVuSans-30"/>
       <use xlink:href="#DejaVuSans-2e" transform="translate(63.623047 0)"/>
       <use xlink:href="#DejaVuSans-34" transform="translate(95.410156 0)"/>
      </g>
     </g>
    </g>
    <g id="text_12">
     <!-- f (m/s^2) -->
     <g transform="translate(20.2375 198.30925) rotate(-90) scale(0.1 -0.1)">
      <defs>
       <path id="DejaVuSans-66" d="M 2375 4863 
L 2375 4384 
L 1825 4384 
Q 1516 4384 1395 4259 
Q 1275 4134 1275 3809 
L 1275 3500 
L 2222 3500 
L 2222 3053 
L 1275 3053 
L 1275 0 
L 697 0 
L 697 3053 
L 147 3053 
L 147 3500 
L 697 3500 
L 697 3744 
Q 697 4328 969 4595 
Q 1241 4863 1831 4863 
L 2375 4863 
z
" transform="scale(0.015625)"/>
       <path id="DejaVuSans-5e" d="M 2988 4666 
L 4684 2925 
L 4056 2925 
L 2681 4159 
L 1306 2925 
L 678 2925 
L 2375 4666 
L 2988 4666 
z
" transform="scale(0.015625)"/>
      </defs>
      <use xlink:href="#DejaVuSans-66"/>
      <use xlink:href="#DejaVuSans-20" transform="translate(35.205078 0)"/>
      <use xlink:href="#DejaVuSans-28" transform="translate(66.992188 0)"/>
      <use xlink:href="#DejaVuSans-6d" transform="translate(106.005859 0)"/>
      <use xlink:href="#DejaVuSans-2f" transform="translate(203.417969 0)"/>
      <use xlink:href="#DejaVuSans-73" transform="translate(237.109375 0)"/>
      <use xlink:href="#DejaVuSans-5e" transform="translate(289.208984 0)"/>
      <use xlink:href="#DejaVuSans-32" transform="translate(372.998047 0)"/>
      <use xlink:href="#DejaVuSans-29" transform="translate(436.621094 0)"/>
     </g>
    </g>
   </g>
   <g id="line2d_11">
    <path d="M 237.963636 173.184 
L 284.897013 138.211064 
L 318.805377 138.211064 
L 364.208318 172.043578 
L 364.208318 172.581178 
L 366.759045 174.481881 
L 366.759045 175.019481 
L 369.819917 177.300325 
L 369.819917 177.837925 
L 372.880789 180.118768 
L 372.880789 180.656368 
L 375.431516 182.557072 
L 375.431516 183.094672 
L 378.492389 185.375515 
L 378.492389 185.913115 
L 381.553261 188.193959 
L 381.553261 188.731559 
L 384.614134 191.012402 
L 384.614134 191.550002 
L 387.164861 193.450705 
L 387.164861 193.988305 
L 390.225733 196.269149 
L 390.225733 196.806749 
L 393.286606 199.087593 
L 393.286606 199.625193 
L 394.306896 200.385474 
L 394.306896 200.385474 
" clip-path="url(#p230bc68184)" style="fill: none; stroke: #1f77b4; stroke-width: 1.5; stroke-linecap: square"/>
    <defs>
     <path id="m7d0b3e9189" d="M 0 1.25 
C 0.331504 1.25 0.649475 1.118292 0.883883 0.883883 
C 1.118292 0.649475 1.25 0.331504 1.25 0 
C 1.25 -0.331504 1.118292 -0.649475 0.883883 -0.883883 
C 0.649475 -1.118292 0.331504 -1.25 0 -1.25 
C -0.331504 -1.25 -0.649475 -1.118292 -0.883883 -0.883883 
C -1.118292 -0.649475 -1.25 -0.331504 -1.25 0 
C -1.25 0.331504 -1.118292 0.649475 -0.883883 0.883883 
C -0.649475 1.118292 -0.331504 1.25 0 1.25 
z
" style="stroke: #1f77b4"/>
    </defs>
    <g clip-path="url(#p230bc68184)">
     <use xlink:href="#m7d0b3e9189" x="237.963636" y="173.184" style="fill: #1f77b4; stroke: #1f77b4"/>
     <use xlink:href="#m7d0b3e9189" x="238.473782" y="172.803859" style="fill: #1f77b4; stroke: #1f77b4"/>
     <use xlink:href="#m7d0b3e9189" x="238.983927" y="172.423719" style="fill: #1f77b4; stroke: #1f77b4"/>
     <use xlink:href="#m7d0b3e9189" x="239.494073" y="172.043578" style="fill: #1f77b4; stroke: #1f77b4"/>
     <use xlink:href="#m7d0b3e9189" x="240.004218" y="171.663438" style="fill: #1f77b4; stroke: #1f77b4"/>
     <use xlink:href="#m7d0b3e9189" x="240.514363" y="171.283297" style="fill: #1f77b4; stroke: #1f77b4"/>
     <use xlink:href="#m7d0b3e9189" x="241.024509" y="170.903156" style="fill: #1f77b4; stroke: #1f77b4"/>
     <use xlink:href="#m7d0b3e9189" x="241.534654" y="170.523016" style="fill: #1f77b4; stroke: #1f77b4"/>
     <use xlink:href="#m7d0b3e9189" x="242.0448" y="170.142875" style="fill: #1f77b4; stroke: #1f77b4"/>
     <use xlink:href="#m7d0b3e9189" x="242.554945" y="169.762735" style="fill: #1f77b4; stroke: #1f77b4"/>
     <use xlink:href="#m7d0b3e9189" x="243.06509" y="169.382594" style="fill: #1f77b4; stroke: #1f77b4"/>
     <use xlink:href="#m7d0b3e9189" x="243.575236" y="169.002453" style="fill: #1f77b4; stroke: #1f77b4"/>
     <use xlink:href="#m7d0b3e9189" x="244.085381" y="168.622313" style="fill: #1f77b4; stroke: #1f77b4"/>
     <use xlink:href="#m7d0b3e9189" x="244.595527" y="168.242172" style="fill: #1f77b4; stroke: #1f77b4"/>
     <use xlink:href="#m7d0b3e9189" x="245.105672" y="167.862032" style="fill: #1f77b4; stroke: #1f77b4"/>
     <use xlink:href="#m7d0b3e9189" x="245.615817" y="167.481891" style="fill: #1f77b4; stroke: #1f77b4"/>
     <use xlink:href="#m7d0b3e9189" x="246.125963" y="167.10175" style="fill: #1f77b4; stroke: #1f77b4"/>
     <use xlink:href="#m7d0b3e9189" x="246.636108" y="166.72161" style="fill: #1f77b4; stroke: #1f77b4"/>
     <use xlink:href="#m7d0b3e9189" x="247.146254" y="166.341469" style="fill: #1f77b4; stroke: #1f77b4"/>
     <use xlink:href="#m7d0b3e9189" x="247.656399" y="165.961328" style="fill: #1f77b4; stroke: #1f77b4"/>
     <use xlink:href="#m7d0b3e9189" x="248.166544" y="165.581188" style="fill: #1f77b4; stroke: #1f77b4"/>
     <use xlink:href="#m7d0b3e9189" x="248.67669" y="165.201047" style="fill: #1f77b4; stroke: #1f77b4"/>
     <use xlink:href="#m7d0b3e9189" x="249.186835" y="164.820907" style="fill: #1f77b4; stroke: #1f77b4"/>
     <use xlink:href="#m7d0b3e9189" x="249.696981" y="164.440766" style="fill: #1f77b4; stroke: #1f77b4"/>
     <use xlink:href="#m7d0b3e9189" x="250.207126" y="164.060625" style="fill: #1f77b4; stroke: #1f77b4"/>
     <use xlink:href="#m7d0b3e9189" x="250.717271" y="163.680485" style="fill: #1f77b4; stroke: #1f77b4"/>
     <use xlink:href="#m7d0b3e9189" x="251.227417" y="163.300344" style="fill: #1f77b4; stroke: #1f77b4"/>
     <use xlink:href="#m7d0b3e9189" x="251.737562" y="162.920204" style="fill: #1f77b4; stroke: #1f77b4"/>
     <use xlink:href="#m7d0b3e9189" x="252.247708" y="162.540063" style="fill: #1f77b4; stroke: #1f77b4"/>
     <use xlink:href="#m7d0b3e9189" x="252.757853" y="162.159922" style="fill: #1f77b4; stroke: #1f77b4"/>
     <use xlink:href="#m7d0b3e9189" x="253.267998" y="161.779782" style="fill: #1f77b4; stroke: #1f77b4"/>
     <use xlink:href="#m7d0b3e9189" x="253.778144" y="161.399641" style="fill: #1f77b4; stroke: #1f77b4"/>
     <use xlink:href="#m7d0b3e9189" x="254.288289" y="161.019501" style="fill: #1f77b4; stroke: #1f77b4"/>
     <use xlink:href="#m7d0b3e9189" x="254.798435" y="160.63936" style="fill: #1f77b4; stroke: #1f77b4"/>
     <use xlink:href="#m7d0b3e9189" x="255.30858" y="160.259219" style="fill: #1f77b4; stroke: #1f77b4"/>
     <use xlink:href="#m7d0b3e9189" x="255.818725" y="159.879079" style="fill: #1f77b4; stroke: #1f77b4"/>
     <use xlink:href="#m7d0b3e9189" x="256.328871" y="159.498938" style="fill: #1f77b4; stroke: #1f77b4"/>
     <use xlink:href="#m7d0b3e9189" x="256.839016" y="159.118798" style="fill: #1f77b4; stroke: #1f77b4"/>
     <use xlink:href="#m7d0b3e9189" x="257.349162" y="158.738657" style="fill: #1f77b4; stroke: #1f77b4"/>
     <use xlink:href="#m7d0b3e9189" x="257.859307" y="158.358516" style="fill: #1f77b4; stroke: #1f77b4"/>
     <use xlink:href="#m7d0b3e9189" x="258.369452" y="157.978376" style="fill: #1f77b4; stroke: #1f77b4"/>
     <use xlink:href="#m7d0b3e9189" x="258.879598" y="157.598235" style="fill: #1f77b4; stroke: #1f77b4"/>
     <use xlink:href="#m7d0b3e9189" x="259.389743" y="157.218095" style="fill: #1f77b4; stroke: #1f77b4"/>
     <use xlink:href="#m7d0b3e9189" x="259.899889" y="156.837954" style="fill: #1f77b4; stroke: #1f77b4"/>
     <use xlink:href="#m7d0b3e9189" x="260.410034" y="156.457813" style="fill: #1f77b4; stroke: #1f77b4"/>
     <use xlink:href="#m7d0b3e9189" x="260.920179" y="156.077673" style="fill: #1f77b4; stroke: #1f77b4"/>
     <use xlink:href="#m7d0b3e9189" x="261.430325" y="155.697532" style="fill: #1f77b4; stroke: #1f77b4"/>
     <use xlink:href="#m7d0b3e9189" x="261.94047" y="155.317392" style="fill: #1f77b4; stroke: #1f77b4"/>
     <use xlink:href="#m7d0b3e9189" x="262.450616" y="154.937251" style="fill: #1f77b4; stroke: #1f77b4"/>
     <use xlink:href="#m7d0b3e9189" x="262.960761" y="154.55711" style="fill: #1f77b4; stroke: #1f77b4"/>
     <use xlink:href="#m7d0b3e9189" x="263.470906" y="154.17697" style="fill: #1f77b4; stroke: #1f77b4"/>
     <use xlink:href="#m7d0b3e9189" x="263.981052" y="153.796829" style="fill: #1f77b4; stroke: #1f77b4"/>
     <use xlink:href="#m7d0b3e9189" x="264.491197" y="153.416689" style="fill: #1f77b4; stroke: #1f77b4"/>
     <use xlink:href="#m7d0b3e9189" x="265.001343" y="153.036548" style="fill: #1f77b4; stroke: #1f77b4"/>
     <use xlink:href="#m7d0b3e9189" x="265.511488" y="152.656407" style="fill: #1f77b4; stroke: #1f77b4"/>
     <use xlink:href="#m7d0b3e9189" x="266.021633" y="152.276267" style="fill: #1f77b4; stroke: #1f77b4"/>
     <use xlink:href="#m7d0b3e9189" x="266.531779" y="151.896126" style="fill: #1f77b4; stroke: #1f77b4"/>
     <use xlink:href="#m7d0b3e9189" x="267.041924" y="151.515985" style="fill: #1f77b4; stroke: #1f77b4"/>
     <use xlink:href="#m7d0b3e9189" x="267.55207" y="151.135845" style="fill: #1f77b4; stroke: #1f77b4"/>
     <use xlink:href="#m7d0b3e9189" x="268.062215" y="150.755704" style="fill: #1f77b4; stroke: #1f77b4"/>
     <use xlink:href="#m7d0b3e9189" x="268.57236" y="150.375564" style="fill: #1f77b4; stroke: #1f77b4"/>
     <use xlink:href="#m7d0b3e9189" x="269.082506" y="149.995423" style="fill: #1f77b4; stroke: #1f77b4"/>
     <use xlink:href="#m7d0b3e9189" x="269.592651" y="149.615282" style="fill: #1f77b4; stroke: #1f77b4"/>
     <use xlink:href="#m7d0b3e9189" x="270.102797" y="149.235142" style="fill: #1f77b4; stroke: #1f77b4"/>
     <use xlink:href="#m7d0b3e9189" x="270.612942" y="148.855001" style="fill: #1f77b4; stroke: #1f77b4"/>
     <use xlink:href="#m7d0b3e9189" x="271.123087" y="148.474861" style="fill: #1f77b4; stroke: #1f77b4"/>
     <use xlink:href="#m7d0b3e9189" x="271.633233" y="148.09472" style="fill: #1f77b4; stroke: #1f77b4"/>
     <use xlink:href="#m7d0b3e9189" x="272.143378" y="147.714579" style="fill: #1f77b4; stroke: #1f77b4"/>
     <use xlink:href="#m7d0b3e9189" x="272.653524" y="147.334439" style="fill: #1f77b4; stroke: #1f77b4"/>
     <use xlink:href="#m7d0b3e9189" x="273.163669" y="146.954298" style="fill: #1f77b4; stroke: #1f77b4"/>
     <use xlink:href="#m7d0b3e9189" x="273.673814" y="146.574158" style="fill: #1f77b4; stroke: #1f77b4"/>
     <use xlink:href="#m7d0b3e9189" x="274.18396" y="146.194017" style="fill: #1f77b4; stroke: #1f77b4"/>
     <use xlink:href="#m7d0b3e9189" x="274.694105" y="145.813876" style="fill: #1f77b4; stroke: #1f77b4"/>
     <use xlink:href="#m7d0b3e9189" x="275.204251" y="145.433736" style="fill: #1f77b4; stroke: #1f77b4"/>
     <use xlink:href="#m7d0b3e9189" x="275.714396" y="145.053595" style="fill: #1f77b4; stroke: #1f77b4"/>
     <use xlink:href="#m7d0b3e9189" x="276.224541" y="144.673455" style="fill: #1f77b4; stroke: #1f77b4"/>
     <use xlink:href="#m7d0b3e9189" x="276.734687" y="144.293314" style="fill: #1f77b4; stroke: #1f77b4"/>
     <use xlink:href="#m7d0b3e9189" x="277.244832" y="143.913173" style="fill: #1f77b4; stroke: #1f77b4"/>
     <use xlink:href="#m7d0b3e9189" x="277.754978" y="143.533033" style="fill: #1f77b4; stroke: #1f77b4"/>
     <use xlink:href="#m7d0b3e9189" x="278.265123" y="143.152892" style="fill: #1f77b4; stroke: #1f77b4"/>
     <use xlink:href="#m7d0b3e9189" x="278.775268" y="142.772752" style="fill: #1f77b4; stroke: #1f77b4"/>
     <use xlink:href="#m7d0b3e9189" x="279.285414" y="142.392611" style="fill: #1f77b4; stroke: #1f77b4"/>
     <use xlink:href="#m7d0b3e9189" x="279.795559" y="142.01247" style="fill: #1f77b4; stroke: #1f77b4"/>
     <use xlink:href="#m7d0b3e9189" x="280.305705" y="141.63233" style="fill: #1f77b4; stroke: #1f77b4"/>
     <use xlink:href="#m7d0b3e9189" x="280.81585" y="141.252189" style="fill: #1f77b4; stroke: #1f77b4"/>
     <use xlink:href="#m7d0b3e9189" x="281.325995" y="140.872049" style="fill: #1f77b4; stroke: #1f77b4"/>
     <use xlink:href="#m7d0b3e9189" x="281.836141" y="140.491908" style="fill: #1f77b4; stroke: #1f77b4"/>
     <use xlink:href="#m7d0b3e9189" x="282.346286" y="140.111767" style="fill: #1f77b4; stroke: #1f77b4"/>
     <use xlink:href="#m7d0b3e9189" x="282.856432" y="139.731627" style="fill: #1f77b4; stroke: #1f77b4"/>
     <use xlink:href="#m7d0b3e9189" x="283.366577" y="139.351486" style="fill: #1f77b4; stroke: #1f77b4"/>
     <use xlink:href="#m7d0b3e9189" x="283.876722" y="138.971345" style="fill: #1f77b4; stroke: #1f77b4"/>
     <use xlink:href="#m7d0b3e9189" x="284.386868" y="138.591205" style="fill: #1f77b4; stroke: #1f77b4"/>
     <use xlink:href="#m7d0b3e9189" x="284.897013" y="138.211064" style="fill: #1f77b4; stroke: #1f77b4"/>
     <use xlink:href="#m7d0b3e9189" x="285.618468" y="138.211064" style="fill: #1f77b4; stroke: #1f77b4"/>
     <use xlink:href="#m7d0b3e9189" x="286.339922" y="138.211064" style="fill: #1f77b4; stroke: #1f77b4"/>
     <use xlink:href="#m7d0b3e9189" x="287.061377" y="138.211064" style="fill: #1f77b4; stroke: #1f77b4"/>
     <use xlink:href="#m7d0b3e9189" x="287.782831" y="138.211064" style="fill: #1f77b4; stroke: #1f77b4"/>
     <use xlink:href="#m7d0b3e9189" x="288.504286" y="138.211064" style="fill: #1f77b4; stroke: #1f77b4"/>
     <use xlink:href="#m7d0b3e9189" x="289.225741" y="138.211064" style="fill: #1f77b4; stroke: #1f77b4"/>
     <use xlink:href="#m7d0b3e9189" x="289.947195" y="138.211064" style="fill: #1f77b4; stroke: #1f77b4"/>
     <use xlink:href="#m7d0b3e9189" x="290.66865" y="138.211064" style="fill: #1f77b4; stroke: #1f77b4"/>
     <use xlink:href="#m7d0b3e9189" x="291.390104" y="138.211064" style="fill: #1f77b4; stroke: #1f77b4"/>
     <use xlink:href="#m7d0b3e9189" x="292.111559" y="138.211064" style="fill: #1f77b4; stroke: #1f77b4"/>
     <use xlink:href="#m7d0b3e9189" x="292.833013" y="138.211064" style="fill: #1f77b4; stroke: #1f77b4"/>
     <use xlink:href="#m7d0b3e9189" x="293.554468" y="138.211064" style="fill: #1f77b4; stroke: #1f77b4"/>
     <use xlink:href="#m7d0b3e9189" x="294.275922" y="138.211064" style="fill: #1f77b4; stroke: #1f77b4"/>
     <use xlink:href="#m7d0b3e9189" x="294.997377" y="138.211064" style="fill: #1f77b4; stroke: #1f77b4"/>
     <use xlink:href="#m7d0b3e9189" x="295.718831" y="138.211064" style="fill: #1f77b4; stroke: #1f77b4"/>
     <use xlink:href="#m7d0b3e9189" x="296.440286" y="138.211064" style="fill: #1f77b4; stroke: #1f77b4"/>
     <use xlink:href="#m7d0b3e9189" x="297.161741" y="138.211064" style="fill: #1f77b4; stroke: #1f77b4"/>
     <use xlink:href="#m7d0b3e9189" x="297.883195" y="138.211064" style="fill: #1f77b4; stroke: #1f77b4"/>
     <use xlink:href="#m7d0b3e9189" x="298.60465" y="138.211064" style="fill: #1f77b4; stroke: #1f77b4"/>
     <use xlink:href="#m7d0b3e9189" x="299.326104" y="138.211064" style="fill: #1f77b4; stroke: #1f77b4"/>
     <use xlink:href="#m7d0b3e9189" x="300.047559" y="138.211064" style="fill: #1f77b4; stroke: #1f77b4"/>
     <use xlink:href="#m7d0b3e9189" x="300.769013" y="138.211064" style="fill: #1f77b4; stroke: #1f77b4"/>
     <use xlink:href="#m7d0b3e9189" x="301.490468" y="138.211064" style="fill: #1f77b4; stroke: #1f77b4"/>
     <use xlink:href="#m7d0b3e9189" x="302.211922" y="138.211064" style="fill: #1f77b4; stroke: #1f77b4"/>
     <use xlink:href="#m7d0b3e9189" x="302.933377" y="138.211064" style="fill: #1f77b4; stroke: #1f77b4"/>
     <use xlink:href="#m7d0b3e9189" x="303.654831" y="138.211064" style="fill: #1f77b4; stroke: #1f77b4"/>
     <use xlink:href="#m7d0b3e9189" x="304.376286" y="138.211064" style="fill: #1f77b4; stroke: #1f77b4"/>
     <use xlink:href="#m7d0b3e9189" x="305.097741" y="138.211064" style="fill: #1f77b4; stroke: #1f77b4"/>
     <use xlink:href="#m7d0b3e9189" x="305.819195" y="138.211064" style="fill: #1f77b4; stroke: #1f77b4"/>
     <use xlink:href="#m7d0b3e9189" x="306.54065" y="138.211064" style="fill: #1f77b4; stroke: #1f77b4"/>
     <use xlink:href="#m7d0b3e9189" x="307.262104" y="138.211064" style="fill: #1f77b4; stroke: #1f77b4"/>
     <use xlink:href="#m7d0b3e9189" x="307.983559" y="138.211064" style="fill: #1f77b4; stroke: #1f77b4"/>
     <use xlink:href="#m7d0b3e9189" x="308.705013" y="138.211064" style="fill: #1f77b4; stroke: #1f77b4"/>
     <use xlink:href="#m7d0b3e9189" x="309.426468" y="138.211064" style="fill: #1f77b4; stroke: #1f77b4"/>
     <use xlink:href="#m7d0b3e9189" x="310.147922" y="138.211064" style="fill: #1f77b4; stroke: #1f77b4"/>
     <use xlink:href="#m7d0b3e9189" x="310.869377" y="138.211064" style="fill: #1f77b4; stroke: #1f77b4"/>
     <use xlink:href="#m7d0b3e9189" x="311.590831" y="138.211064" style="fill: #1f77b4; stroke: #1f77b4"/>
     <use xlink:href="#m7d0b3e9189" x="312.312286" y="138.211064" style="fill: #1f77b4; stroke: #1f77b4"/>
     <use xlink:href="#m7d0b3e9189" x="313.033741" y="138.211064" style="fill: #1f77b4; stroke: #1f77b4"/>
     <use xlink:href="#m7d0b3e9189" x="313.755195" y="138.211064" style="fill: #1f77b4; stroke: #1f77b4"/>
     <use xlink:href="#m7d0b3e9189" x="314.47665" y="138.211064" style="fill: #1f77b4; stroke: #1f77b4"/>
     <use xlink:href="#m7d0b3e9189" x="315.198104" y="138.211064" style="fill: #1f77b4; stroke: #1f77b4"/>
     <use xlink:href="#m7d0b3e9189" x="315.919559" y="138.211064" style="fill: #1f77b4; stroke: #1f77b4"/>
     <use xlink:href="#m7d0b3e9189" x="316.641013" y="138.211064" style="fill: #1f77b4; stroke: #1f77b4"/>
     <use xlink:href="#m7d0b3e9189" x="317.362468" y="138.211064" style="fill: #1f77b4; stroke: #1f77b4"/>
     <use xlink:href="#m7d0b3e9189" x="318.083922" y="138.211064" style="fill: #1f77b4; stroke: #1f77b4"/>
     <use xlink:href="#m7d0b3e9189" x="318.805377" y="138.211064" style="fill: #1f77b4; stroke: #1f77b4"/>
     <use xlink:href="#m7d0b3e9189" x="319.315522" y="138.591205" style="fill: #1f77b4; stroke: #1f77b4"/>
     <use xlink:href="#m7d0b3e9189" x="319.825668" y="138.971345" style="fill: #1f77b4; stroke: #1f77b4"/>
     <use xlink:href="#m7d0b3e9189" x="320.335813" y="139.351486" style="fill: #1f77b4; stroke: #1f77b4"/>
     <use xlink:href="#m7d0b3e9189" x="320.845959" y="139.731627" style="fill: #1f77b4; stroke: #1f77b4"/>
     <use xlink:href="#m7d0b3e9189" x="321.356104" y="140.111767" style="fill: #1f77b4; stroke: #1f77b4"/>
     <use xlink:href="#m7d0b3e9189" x="321.866249" y="140.491908" style="fill: #1f77b4; stroke: #1f77b4"/>
     <use xlink:href="#m7d0b3e9189" x="322.376395" y="140.872049" style="fill: #1f77b4; stroke: #1f77b4"/>
     <use xlink:href="#m7d0b3e9189" x="322.88654" y="141.252189" style="fill: #1f77b4; stroke: #1f77b4"/>
     <use xlink:href="#m7d0b3e9189" x="323.396686" y="141.63233" style="fill: #1f77b4; stroke: #1f77b4"/>
     <use xlink:href="#m7d0b3e9189" x="323.906831" y="142.01247" style="fill: #1f77b4; stroke: #1f77b4"/>
     <use xlink:href="#m7d0b3e9189" x="324.416976" y="142.392611" style="fill: #1f77b4; stroke: #1f77b4"/>
     <use xlink:href="#m7d0b3e9189" x="324.927122" y="142.772752" style="fill: #1f77b4; stroke: #1f77b4"/>
     <use xlink:href="#m7d0b3e9189" x="325.437267" y="143.152892" style="fill: #1f77b4; stroke: #1f77b4"/>
     <use xlink:href="#m7d0b3e9189" x="325.947413" y="143.533033" style="fill: #1f77b4; stroke: #1f77b4"/>
     <use xlink:href="#m7d0b3e9189" x="326.457558" y="143.913173" style="fill: #1f77b4; stroke: #1f77b4"/>
     <use xlink:href="#m7d0b3e9189" x="326.967703" y="144.293314" style="fill: #1f77b4; stroke: #1f77b4"/>
     <use xlink:href="#m7d0b3e9189" x="327.477849" y="144.673455" style="fill: #1f77b4; stroke: #1f77b4"/>
     <use xlink:href="#m7d0b3e9189" x="327.987994" y="145.053595" style="fill: #1f77b4; stroke: #1f77b4"/>
     <use xlink:href="#m7d0b3e9189" x="328.49814" y="145.433736" style="fill: #1f77b4; stroke: #1f77b4"/>
     <use xlink:href="#m7d0b3e9189" x="329.008285" y="145.813876" style="fill: #1f77b4; stroke: #1f77b4"/>
     <use xlink:href="#m7d0b3e9189" x="329.51843" y="146.194017" style="fill: #1f77b4; stroke: #1f77b4"/>
     <use xlink:href="#m7d0b3e9189" x="330.028576" y="146.574158" style="fill: #1f77b4; stroke: #1f77b4"/>
     <use xlink:href="#m7d0b3e9189" x="330.538721" y="146.954298" style="fill: #1f77b4; stroke: #1f77b4"/>
     <use xlink:href="#m7d0b3e9189" x="331.048867" y="147.334439" style="fill: #1f77b4; stroke: #1f77b4"/>
     <use xlink:href="#m7d0b3e9189" x="331.559012" y="147.714579" style="fill: #1f77b4; stroke: #1f77b4"/>
     <use xlink:href="#m7d0b3e9189" x="332.069157" y="148.09472" style="fill: #1f77b4; stroke: #1f77b4"/>
     <use xlink:href="#m7d0b3e9189" x="332.579303" y="148.474861" style="fill: #1f77b4; stroke: #1f77b4"/>
     <use xlink:href="#m7d0b3e9189" x="333.089448" y="148.855001" style="fill: #1f77b4; stroke: #1f77b4"/>
     <use xlink:href="#m7d0b3e9189" x="333.599594" y="149.235142" style="fill: #1f77b4; stroke: #1f77b4"/>
     <use xlink:href="#m7d0b3e9189" x="334.109739" y="149.615282" style="fill: #1f77b4; stroke: #1f77b4"/>
     <use xlink:href="#m7d0b3e9189" x="334.619884" y="149.995423" style="fill: #1f77b4; stroke: #1f77b4"/>
     <use xlink:href="#m7d0b3e9189" x="335.13003" y="150.375564" style="fill: #1f77b4; stroke: #1f77b4"/>
     <use xlink:href="#m7d0b3e9189" x="335.640175" y="150.755704" style="fill: #1f77b4; stroke: #1f77b4"/>
     <use xlink:href="#m7d0b3e9189" x="336.150321" y="151.135845" style="fill: #1f77b4; stroke: #1f77b4"/>
     <use xlink:href="#m7d0b3e9189" x="336.660466" y="151.515985" style="fill: #1f77b4; stroke: #1f77b4"/>
     <use xlink:href="#m7d0b3e9189" x="337.170611" y="151.896126" style="fill: #1f77b4; stroke: #1f77b4"/>
     <use xlink:href="#m7d0b3e9189" x="337.680757" y="152.276267" style="fill: #1f77b4; stroke: #1f77b4"/>
     <use xlink:href="#m7d0b3e9189" x="338.190902" y="152.656407" style="fill: #1f77b4; stroke: #1f77b4"/>
     <use xlink:href="#m7d0b3e9189" x="338.701048" y="153.036548" style="fill: #1f77b4; stroke: #1f77b4"/>
     <use xlink:href="#m7d0b3e9189" x="339.211193" y="153.416689" style="fill: #1f77b4; stroke: #1f77b4"/>
     <use xlink:href="#m7d0b3e9189" x="339.721338" y="153.796829" style="fill: #1f77b4; stroke: #1f77b4"/>
     <use xlink:href="#m7d0b3e9189" x="340.231484" y="154.17697" style="fill: #1f77b4; stroke: #1f77b4"/>
     <use xlink:href="#m7d0b3e9189" x="340.741629" y="154.55711" style="fill: #1f77b4; stroke: #1f77b4"/>
     <use xlink:href="#m7d0b3e9189" x="341.251775" y="154.937251" style="fill: #1f77b4; stroke: #1f77b4"/>
     <use xlink:href="#m7d0b3e9189" x="341.76192" y="155.317392" style="fill: #1f77b4; stroke: #1f77b4"/>
     <use xlink:href="#m7d0b3e9189" x="342.272065" y="155.697532" style="fill: #1f77b4; stroke: #1f77b4"/>
     <use xlink:href="#m7d0b3e9189" x="342.782211" y="156.077673" style="fill: #1f77b4; stroke: #1f77b4"/>
     <use xlink:href="#m7d0b3e9189" x="343.292356" y="156.457813" style="fill: #1f77b4; stroke: #1f77b4"/>
     <use xlink:href="#m7d0b3e9189" x="343.802502" y="156.837954" style="fill: #1f77b4; stroke: #1f77b4"/>
     <use xlink:href="#m7d0b3e9189" x="344.312647" y="157.218095" style="fill: #1f77b4; stroke: #1f77b4"/>
     <use xlink:href="#m7d0b3e9189" x="344.822792" y="157.598235" style="fill: #1f77b4; stroke: #1f77b4"/>
     <use xlink:href="#m7d0b3e9189" x="345.332938" y="157.978376" style="fill: #1f77b4; stroke: #1f77b4"/>
     <use xlink:href="#m7d0b3e9189" x="345.843083" y="158.358516" style="fill: #1f77b4; stroke: #1f77b4"/>
     <use xlink:href="#m7d0b3e9189" x="346.353229" y="158.738657" style="fill: #1f77b4; stroke: #1f77b4"/>
     <use xlink:href="#m7d0b3e9189" x="346.863374" y="159.118798" style="fill: #1f77b4; stroke: #1f77b4"/>
     <use xlink:href="#m7d0b3e9189" x="347.373519" y="159.498938" style="fill: #1f77b4; stroke: #1f77b4"/>
     <use xlink:href="#m7d0b3e9189" x="347.883665" y="159.879079" style="fill: #1f77b4; stroke: #1f77b4"/>
     <use xlink:href="#m7d0b3e9189" x="348.39381" y="160.259219" style="fill: #1f77b4; stroke: #1f77b4"/>
     <use xlink:href="#m7d0b3e9189" x="348.903956" y="160.63936" style="fill: #1f77b4; stroke: #1f77b4"/>
     <use xlink:href="#m7d0b3e9189" x="349.414101" y="161.019501" style="fill: #1f77b4; stroke: #1f77b4"/>
     <use xlink:href="#m7d0b3e9189" x="349.924246" y="161.399641" style="fill: #1f77b4; stroke: #1f77b4"/>
     <use xlink:href="#m7d0b3e9189" x="350.434392" y="161.779782" style="fill: #1f77b4; stroke: #1f77b4"/>
     <use xlink:href="#m7d0b3e9189" x="350.944537" y="162.159922" style="fill: #1f77b4; stroke: #1f77b4"/>
     <use xlink:href="#m7d0b3e9189" x="351.454683" y="162.540063" style="fill: #1f77b4; stroke: #1f77b4"/>
     <use xlink:href="#m7d0b3e9189" x="351.964828" y="162.920204" style="fill: #1f77b4; stroke: #1f77b4"/>
     <use xlink:href="#m7d0b3e9189" x="352.474973" y="163.300344" style="fill: #1f77b4; stroke: #1f77b4"/>
     <use xlink:href="#m7d0b3e9189" x="352.985119" y="163.680485" style="fill: #1f77b4; stroke: #1f77b4"/>
     <use xlink:href="#m7d0b3e9189" x="353.495264" y="164.060625" style="fill: #1f77b4; stroke: #1f77b4"/>
     <use xlink:href="#m7d0b3e9189" x="354.00541" y="164.440766" style="fill: #1f77b4; stroke: #1f77b4"/>
     <use xlink:href="#m7d0b3e9189" x="354.515555" y="164.820907" style="fill: #1f77b4; stroke: #1f77b4"/>
     <use xlink:href="#m7d0b3e9189" x="355.0257" y="165.201047" style="fill: #1f77b4; stroke: #1f77b4"/>
     <use xlink:href="#m7d0b3e9189" x="355.535846" y="165.581188" style="fill: #1f77b4; stroke: #1f77b4"/>
     <use xlink:href="#m7d0b3e9189" x="356.045991" y="165.961328" style="fill: #1f77b4; stroke: #1f77b4"/>
     <use xlink:href="#m7d0b3e9189" x="356.556137" y="166.341469" style="fill: #1f77b4; stroke: #1f77b4"/>
     <use xlink:href="#m7d0b3e9189" x="357.066282" y="166.72161" style="fill: #1f77b4; stroke: #1f77b4"/>
     <use xlink:href="#m7d0b3e9189" x="357.576427" y="167.10175" style="fill: #1f77b4; stroke: #1f77b4"/>
     <use xlink:href="#m7d0b3e9189" x="358.086573" y="167.481891" style="fill: #1f77b4; stroke: #1f77b4"/>
     <use xlink:href="#m7d0b3e9189" x="358.596718" y="167.862032" style="fill: #1f77b4; stroke: #1f77b4"/>
     <use xlink:href="#m7d0b3e9189" x="359.106864" y="168.242172" style="fill: #1f77b4; stroke: #1f77b4"/>
     <use xlink:href="#m7d0b3e9189" x="359.617009" y="168.622313" style="fill: #1f77b4; stroke: #1f77b4"/>
     <use xlink:href="#m7d0b3e9189" x="360.127154" y="169.002453" style="fill: #1f77b4; stroke: #1f77b4"/>
     <use xlink:href="#m7d0b3e9189" x="360.6373" y="169.382594" style="fill: #1f77b4; stroke: #1f77b4"/>
     <use xlink:href="#m7d0b3e9189" x="361.147445" y="169.762735" style="fill: #1f77b4; stroke: #1f77b4"/>
     <use xlink:href="#m7d0b3e9189" x="361.657591" y="170.142875" style="fill: #1f77b4; stroke: #1f77b4"/>
     <use xlink:href="#m7d0b3e9189" x="362.167736" y="170.523016" style="fill: #1f77b4; stroke: #1f77b4"/>
     <use xlink:href="#m7d0b3e9189" x="362.677881" y="170.903156" style="fill: #1f77b4; stroke: #1f77b4"/>
     <use xlink:href="#m7d0b3e9189" x="363.188027" y="171.283297" style="fill: #1f77b4; stroke: #1f77b4"/>
     <use xlink:href="#m7d0b3e9189" x="363.698172" y="171.663438" style="fill: #1f77b4; stroke: #1f77b4"/>
     <use xlink:href="#m7d0b3e9189" x="364.208318" y="172.043578" style="fill: #1f77b4; stroke: #1f77b4"/>
     <use xlink:href="#m7d0b3e9189" x="364.208318" y="172.581178" style="fill: #1f77b4; stroke: #1f77b4"/>
     <use xlink:href="#m7d0b3e9189" x="364.718463" y="172.961319" style="fill: #1f77b4; stroke: #1f77b4"/>
     <use xlink:href="#m7d0b3e9189" x="365.228608" y="173.341459" style="fill: #1f77b4; stroke: #1f77b4"/>
     <use xlink:href="#m7d0b3e9189" x="365.738754" y="173.7216" style="fill: #1f77b4; stroke: #1f77b4"/>
     <use xlink:href="#m7d0b3e9189" x="366.248899" y="174.101741" style="fill: #1f77b4; stroke: #1f77b4"/>
     <use xlink:href="#m7d0b3e9189" x="366.759045" y="174.481881" style="fill: #1f77b4; stroke: #1f77b4"/>
     <use xlink:href="#m7d0b3e9189" x="366.759045" y="175.019481" style="fill: #1f77b4; stroke: #1f77b4"/>
     <use xlink:href="#m7d0b3e9189" x="367.26919" y="175.399622" style="fill: #1f77b4; stroke: #1f77b4"/>
     <use xlink:href="#m7d0b3e9189" x="367.779335" y="175.779762" style="fill: #1f77b4; stroke: #1f77b4"/>
     <use xlink:href="#m7d0b3e9189" x="368.289481" y="176.159903" style="fill: #1f77b4; stroke: #1f77b4"/>
     <use xlink:href="#m7d0b3e9189" x="368.799626" y="176.540044" style="fill: #1f77b4; stroke: #1f77b4"/>
     <use xlink:href="#m7d0b3e9189" x="369.309772" y="176.920184" style="fill: #1f77b4; stroke: #1f77b4"/>
     <use xlink:href="#m7d0b3e9189" x="369.819917" y="177.300325" style="fill: #1f77b4; stroke: #1f77b4"/>
     <use xlink:href="#m7d0b3e9189" x="369.819917" y="177.837925" style="fill: #1f77b4; stroke: #1f77b4"/>
     <use xlink:href="#m7d0b3e9189" x="370.330062" y="178.218065" style="fill: #1f77b4; stroke: #1f77b4"/>
     <use xlink:href="#m7d0b3e9189" x="370.840208" y="178.598206" style="fill: #1f77b4; stroke: #1f77b4"/>
     <use xlink:href="#m7d0b3e9189" x="371.350353" y="178.978347" style="fill: #1f77b4; stroke: #1f77b4"/>
     <use xlink:href="#m7d0b3e9189" x="371.860499" y="179.358487" style="fill: #1f77b4; stroke: #1f77b4"/>
     <use xlink:href="#m7d0b3e9189" x="372.370644" y="179.738628" style="fill: #1f77b4; stroke: #1f77b4"/>
     <use xlink:href="#m7d0b3e9189" x="372.880789" y="180.118768" style="fill: #1f77b4; stroke: #1f77b4"/>
     <use xlink:href="#m7d0b3e9189" x="372.880789" y="180.656368" style="fill: #1f77b4; stroke: #1f77b4"/>
     <use xlink:href="#m7d0b3e9189" x="373.390935" y="181.036509" style="fill: #1f77b4; stroke: #1f77b4"/>
     <use xlink:href="#m7d0b3e9189" x="373.90108" y="181.41665" style="fill: #1f77b4; stroke: #1f77b4"/>
     <use xlink:href="#m7d0b3e9189" x="374.411226" y="181.79679" style="fill: #1f77b4; stroke: #1f77b4"/>
     <use xlink:href="#m7d0b3e9189" x="374.921371" y="182.176931" style="fill: #1f77b4; stroke: #1f77b4"/>
     <use xlink:href="#m7d0b3e9189" x="375.431516" y="182.557072" style="fill: #1f77b4; stroke: #1f77b4"/>
     <use xlink:href="#m7d0b3e9189" x="375.431516" y="183.094672" style="fill: #1f77b4; stroke: #1f77b4"/>
     <use xlink:href="#m7d0b3e9189" x="375.941662" y="183.474812" style="fill: #1f77b4; stroke: #1f77b4"/>
     <use xlink:href="#m7d0b3e9189" x="376.451807" y="183.854953" style="fill: #1f77b4; stroke: #1f77b4"/>
     <use xlink:href="#m7d0b3e9189" x="376.961953" y="184.235093" style="fill: #1f77b4; stroke: #1f77b4"/>
     <use xlink:href="#m7d0b3e9189" x="377.472098" y="184.615234" style="fill: #1f77b4; stroke: #1f77b4"/>
     <use xlink:href="#m7d0b3e9189" x="377.982243" y="184.995375" style="fill: #1f77b4; stroke: #1f77b4"/>
     <use xlink:href="#m7d0b3e9189" x="378.492389" y="185.375515" style="fill: #1f77b4; stroke: #1f77b4"/>
     <use xlink:href="#m7d0b3e9189" x="378.492389" y="185.913115" style="fill: #1f77b4; stroke: #1f77b4"/>
     <use xlink:href="#m7d0b3e9189" x="379.002534" y="186.293256" style="fill: #1f77b4; stroke: #1f77b4"/>
     <use xlink:href="#m7d0b3e9189" x="379.51268" y="186.673396" style="fill: #1f77b4; stroke: #1f77b4"/>
     <use xlink:href="#m7d0b3e9189" x="380.022825" y="187.053537" style="fill: #1f77b4; stroke: #1f77b4"/>
     <use xlink:href="#m7d0b3e9189" x="380.532971" y="187.433678" style="fill: #1f77b4; stroke: #1f77b4"/>
     <use xlink:href="#m7d0b3e9189" x="381.043116" y="187.813818" style="fill: #1f77b4; stroke: #1f77b4"/>
     <use xlink:href="#m7d0b3e9189" x="381.553261" y="188.193959" style="fill: #1f77b4; stroke: #1f77b4"/>
     <use xlink:href="#m7d0b3e9189" x="381.553261" y="188.731559" style="fill: #1f77b4; stroke: #1f77b4"/>
     <use xlink:href="#m7d0b3e9189" x="382.063407" y="189.111699" style="fill: #1f77b4; stroke: #1f77b4"/>
     <use xlink:href="#m7d0b3e9189" x="382.573552" y="189.49184" style="fill: #1f77b4; stroke: #1f77b4"/>
     <use xlink:href="#m7d0b3e9189" x="383.083698" y="189.871981" style="fill: #1f77b4; stroke: #1f77b4"/>
     <use xlink:href="#m7d0b3e9189" x="383.593843" y="190.252121" style="fill: #1f77b4; stroke: #1f77b4"/>
     <use xlink:href="#m7d0b3e9189" x="384.103988" y="190.632262" style="fill: #1f77b4; stroke: #1f77b4"/>
     <use xlink:href="#m7d0b3e9189" x="384.614134" y="191.012402" style="fill: #1f77b4; stroke: #1f77b4"/>
     <use xlink:href="#m7d0b3e9189" x="384.614134" y="191.550002" style="fill: #1f77b4; stroke: #1f77b4"/>
     <use xlink:href="#m7d0b3e9189" x="385.124279" y="191.930143" style="fill: #1f77b4; stroke: #1f77b4"/>
     <use xlink:href="#m7d0b3e9189" x="385.634425" y="192.310284" style="fill: #1f77b4; stroke: #1f77b4"/>
     <use xlink:href="#m7d0b3e9189" x="386.14457" y="192.690424" style="fill: #1f77b4; stroke: #1f77b4"/>
     <use xlink:href="#m7d0b3e9189" x="386.654715" y="193.070565" style="fill: #1f77b4; stroke: #1f77b4"/>
     <use xlink:href="#m7d0b3e9189" x="387.164861" y="193.450705" style="fill: #1f77b4; stroke: #1f77b4"/>
     <use xlink:href="#m7d0b3e9189" x="387.164861" y="193.988305" style="fill: #1f77b4; stroke: #1f77b4"/>
     <use xlink:href="#m7d0b3e9189" x="387.675006" y="194.368446" style="fill: #1f77b4; stroke: #1f77b4"/>
     <use xlink:href="#m7d0b3e9189" x="388.185152" y="194.748587" style="fill: #1f77b4; stroke: #1f77b4"/>
     <use xlink:href="#m7d0b3e9189" x="388.695297" y="195.128727" style="fill: #1f77b4; stroke: #1f77b4"/>
     <use xlink:href="#m7d0b3e9189" x="389.205442" y="195.508868" style="fill: #1f77b4; stroke: #1f77b4"/>
     <use xlink:href="#m7d0b3e9189" x="389.715588" y="195.889008" style="fill: #1f77b4; stroke: #1f77b4"/>
     <use xlink:href="#m7d0b3e9189" x="390.225733" y="196.269149" style="fill: #1f77b4; stroke: #1f77b4"/>
     <use xlink:href="#m7d0b3e9189" x="390.225733" y="196.806749" style="fill: #1f77b4; stroke: #1f77b4"/>
     <use xlink:href="#m7d0b3e9189" x="390.735879" y="197.18689" style="fill: #1f77b4; stroke: #1f77b4"/>
     <use xlink:href="#m7d0b3e9189" x="391.246024" y="197.56703" style="fill: #1f77b4; stroke: #1f77b4"/>
     <use xlink:href="#m7d0b3e9189" x="391.756169" y="197.947171" style="fill: #1f77b4; stroke: #1f77b4"/>
     <use xlink:href="#m7d0b3e9189" x="392.266315" y="198.327311" style="fill: #1f77b4; stroke: #1f77b4"/>
     <use xlink:href="#m7d0b3e9189" x="392.77646" y="198.707452" style="fill: #1f77b4; stroke: #1f77b4"/>
     <use xlink:href="#m7d0b3e9189" x="393.286606" y="199.087593" style="fill: #1f77b4; stroke: #1f77b4"/>
     <use xlink:href="#m7d0b3e9189" x="393.286606" y="199.625193" style="fill: #1f77b4; stroke: #1f77b4"/>
     <use xlink:href="#m7d0b3e9189" x="393.796751" y="200.005333" style="fill: #1f77b4; stroke: #1f77b4"/>
     <use xlink:href="#m7d0b3e9189" x="394.306896" y="200.385474" style="fill: #1f77b4; stroke: #1f77b4"/>
    </g>
   </g>
   <g id="line2d_12">
    <defs>
     <path id="m54a74a2cd3" d="M 0 -3 
L -0.673542 -0.927051 
L -2.85317 -0.927051 
L -1.089814 0.354102 
L -1.763356 2.427051 
L -0 1.145898 
L 1.763356 2.427051 
L 1.089814 0.354102 
L 2.85317 -0.927051 
L 0.673542 -0.927051 
z
" style="stroke: #bfbf00; stroke-linejoin: bevel"/>
    </defs>
    <g clip-path="url(#p230bc68184)">
     <use xlink:href="#m54a74a2cd3" x="237.963636" y="173.184" style="fill: #bfbf00; stroke: #bfbf00; stroke-linejoin: bevel"/>
    </g>
   </g>
   <g id="line2d_13">
    <defs>
     <path id="mebf0b11bc9" d="M -3 3 
L 3 -3 
M -3 -3 
L 3 3 
" style="stroke: #ff0000"/>
    </defs>
    <g clip-path="url(#p230bc68184)">
     <use xlink:href="#mebf0b11bc9" x="394.306896" y="200.385474" style="fill: #ff0000; stroke: #ff0000"/>
    </g>
   </g>
   <g id="patch_3">
    <path d="M 57.6 307.584 
L 57.6 41.472 
" style="fill: none; stroke: #000000; stroke-width: 0.8; stroke-linejoin: miter; stroke-linecap: square"/>
   </g>
   <g id="patch_4">
    <path d="M 414.72 307.584 
L 414.72 41.472 
" style="fill: none; stroke: #000000; stroke-width: 0.8; stroke-linejoin: miter; stroke-linecap: square"/>
   </g>
   <g id="patch_5">
    <path d="M 57.6 307.584 
L 414.72 307.584 
" style="fill: none; stroke: #000000; stroke-width: 0.8; stroke-linejoin: miter; stroke-linecap: square"/>
   </g>
   <g id="patch_6">
    <path d="M 57.6 41.472 
L 414.72 41.472 
" style="fill: none; stroke: #000000; stroke-width: 0.8; stroke-linejoin: miter; stroke-linecap: square"/>
   </g>
   <g id="text_13">
    <!-- Hill Climbing -->
    <g transform="translate(198.285 35.472) scale(0.12 -0.12)">
     <defs>
      <path id="DejaVuSans-48" d="M 628 4666 
L 1259 4666 
L 1259 2753 
L 3553 2753 
L 3553 4666 
L 4184 4666 
L 4184 0 
L 3553 0 
L 3553 2222 
L 1259 2222 
L 1259 0 
L 628 0 
L 628 4666 
z
" transform="scale(0.015625)"/>
      <path id="DejaVuSans-69" d="M 603 3500 
L 1178 3500 
L 1178 0 
L 603 0 
L 603 3500 
z
M 603 4863 
L 1178 4863 
L 1178 4134 
L 603 4134 
L 603 4863 
z
" transform="scale(0.015625)"/>
      <path id="DejaVuSans-6c" d="M 603 4863 
L 1178 4863 
L 1178 0 
L 603 0 
L 603 4863 
z
" transform="scale(0.015625)"/>
      <path id="DejaVuSans-43" d="M 4122 4306 
L 4122 3641 
Q 3803 3938 3442 4084 
Q 3081 4231 2675 4231 
Q 1875 4231 1450 3742 
Q 1025 3253 1025 2328 
Q 1025 1406 1450 917 
Q 1875 428 2675 428 
Q 3081 428 3442 575 
Q 3803 722 4122 1019 
L 4122 359 
Q 3791 134 3420 21 
Q 3050 -91 2638 -91 
Q 1578 -91 968 557 
Q 359 1206 359 2328 
Q 359 3453 968 4101 
Q 1578 4750 2638 4750 
Q 3056 4750 3426 4639 
Q 3797 4528 4122 4306 
z
" transform="scale(0.015625)"/>
      <path id="DejaVuSans-62" d="M 3116 1747 
Q 3116 2381 2855 2742 
Q 2594 3103 2138 3103 
Q 1681 3103 1420 2742 
Q 1159 2381 1159 1747 
Q 1159 1113 1420 752 
Q 1681 391 2138 391 
Q 2594 391 2855 752 
Q 3116 1113 3116 1747 
z
M 1159 2969 
Q 1341 3281 1617 3432 
Q 1894 3584 2278 3584 
Q 2916 3584 3314 3078 
Q 3713 2572 3713 1747 
Q 3713 922 3314 415 
Q 2916 -91 2278 -91 
Q 1894 -91 1617 61 
Q 1341 213 1159 525 
L 1159 0 
L 581 0 
L 581 4863 
L 1159 4863 
L 1159 2969 
z
" transform="scale(0.015625)"/>
      <path id="DejaVuSans-6e" d="M 3513 2113 
L 3513 0 
L 2938 0 
L 2938 2094 
Q 2938 2591 2744 2837 
Q 2550 3084 2163 3084 
Q 1697 3084 1428 2787 
Q 1159 2491 1159 1978 
L 1159 0 
L 581 0 
L 581 3500 
L 1159 3500 
L 1159 2956 
Q 1366 3272 1645 3428 
Q 1925 3584 2291 3584 
Q 2894 3584 3203 3211 
Q 3513 2838 3513 2113 
z
" transform="scale(0.015625)"/>
      <path id="DejaVuSans-67" d="M 2906 1791 
Q 2906 2416 2648 2759 
Q 2391 3103 1925 3103 
Q 1463 3103 1205 2759 
Q 947 2416 947 1791 
Q 947 1169 1205 825 
Q 1463 481 1925 481 
Q 2391 481 2648 825 
Q 2906 1169 2906 1791 
z
M 3481 434 
Q 3481 -459 3084 -895 
Q 2688 -1331 1869 -1331 
Q 1566 -1331 1297 -1286 
Q 1028 -1241 775 -1147 
L 775 -588 
Q 1028 -725 1275 -790 
Q 1522 -856 1778 -856 
Q 2344 -856 2625 -561 
Q 2906 -266 2906 331 
L 2906 616 
Q 2728 306 2450 153 
Q 2172 0 1784 0 
Q 1141 0 747 490 
Q 353 981 353 1791 
Q 353 2603 747 3093 
Q 1141 3584 1784 3584 
Q 2172 3584 2450 3431 
Q 2728 3278 2906 2969 
L 2906 3500 
L 3481 3500 
L 3481 434 
z
" transform="scale(0.015625)"/>
     </defs>
     <use xlink:href="#DejaVuSans-48"/>
     <use xlink:href="#DejaVuSans-69" transform="translate(75.195312 0)"/>
     <use xlink:href="#DejaVuSans-6c" transform="translate(102.978516 0)"/>
     <use xlink:href="#DejaVuSans-6c" transform="translate(130.761719 0)"/>
     <use xlink:href="#DejaVuSans-20" transform="translate(158.544922 0)"/>
     <use xlink:href="#DejaVuSans-43" transform="translate(190.332031 0)"/>
     <use xlink:href="#DejaVuSans-6c" transform="translate(260.15625 0)"/>
     <use xlink:href="#DejaVuSans-69" transform="translate(287.939453 0)"/>
     <use xlink:href="#DejaVuSans-6d" transform="translate(315.722656 0)"/>
     <use xlink:href="#DejaVuSans-62" transform="translate(413.134766 0)"/>
     <use xlink:href="#DejaVuSans-69" transform="translate(476.611328 0)"/>
     <use xlink:href="#DejaVuSans-6e" transform="translate(504.394531 0)"/>
     <use xlink:href="#DejaVuSans-67" transform="translate(567.773438 0)"/>
    </g>
   </g>
  </g>
 </g>
 <defs>
  <clipPath id="p230bc68184">
   <rect x="57.6" y="41.472" width="357.12" height="266.112"/>
  </clipPath>
 </defs>
</svg>
